<svg width="448" height="149" viewBox="0 0 448 149" fill="none" xmlns="http://www.w3.org/2000/svg">
<path d="M306.08 25.14C305.147 25.14 304.307 24.98 303.56 24.66C302.813 24.3267 302.227 23.86 301.8 23.26C301.373 22.66 301.16 21.96 301.16 21.16H303.6C303.653 21.76 303.887 22.2533 304.3 22.64C304.727 23.0267 305.32 23.22 306.08 23.22C306.867 23.22 307.48 23.0333 307.92 22.66C308.36 22.2733 308.58 21.78 308.58 21.18C308.58 20.7133 308.44 20.3333 308.16 20.04C307.893 19.7467 307.553 19.52 307.14 19.36C306.74 19.2 306.18 19.0267 305.46 18.84C304.553 18.6 303.813 18.36 303.24 18.12C302.68 17.8667 302.2 17.48 301.8 16.96C301.4 16.44 301.2 15.7467 301.2 14.88C301.2 14.08 301.4 13.38 301.8 12.78C302.2 12.18 302.76 11.72 303.48 11.4C304.2 11.08 305.033 10.92 305.98 10.92C307.327 10.92 308.427 11.26 309.28 11.94C310.147 12.6067 310.627 13.5267 310.72 14.7H308.2C308.16 14.1933 307.92 13.76 307.48 13.4C307.04 13.04 306.46 12.86 305.74 12.86C305.087 12.86 304.553 13.0267 304.14 13.36C303.727 13.6933 303.52 14.1733 303.52 14.8C303.52 15.2267 303.647 15.58 303.9 15.86C304.167 16.1267 304.5 16.34 304.9 16.5C305.3 16.66 305.847 16.8333 306.54 17.02C307.46 17.2733 308.207 17.5267 308.78 17.78C309.367 18.0333 309.86 18.4267 310.26 18.96C310.673 19.48 310.88 20.18 310.88 21.06C310.88 21.7667 310.687 22.4333 310.3 23.06C309.927 23.6867 309.373 24.1933 308.64 24.58C307.92 24.9533 307.067 25.14 306.08 25.14ZM323.55 13.98V25H321.27V23.7C320.91 24.1533 320.437 24.5133 319.85 24.78C319.277 25.0333 318.664 25.16 318.01 25.16C317.144 25.16 316.364 24.98 315.67 24.62C314.99 24.26 314.45 23.7267 314.05 23.02C313.664 22.3133 313.47 21.46 313.47 20.46V13.98H315.73V20.12C315.73 21.1067 315.977 21.8667 316.47 22.4C316.964 22.92 317.637 23.18 318.49 23.18C319.344 23.18 320.017 22.92 320.51 22.4C321.017 21.8667 321.27 21.1067 321.27 20.12V13.98H323.55ZM328.839 15.6C329.225 15.0933 329.752 14.6667 330.419 14.32C331.085 13.9733 331.839 13.8 332.679 13.8C333.639 13.8 334.512 14.04 335.299 14.52C336.099 14.9867 336.725 15.6467 337.179 16.5C337.632 17.3533 337.859 18.3333 337.859 19.44C337.859 20.5467 337.632 21.54 337.179 22.42C336.725 23.2867 336.099 23.9667 335.299 24.46C334.512 24.94 333.639 25.18 332.679 25.18C331.839 25.18 331.092 25.0133 330.439 24.68C329.785 24.3333 329.252 23.9067 328.839 23.4V30.24H326.559V13.98H328.839V15.6ZM335.539 19.44C335.539 18.68 335.379 18.0267 335.059 17.48C334.752 16.92 334.339 16.5 333.819 16.22C333.312 15.9267 332.765 15.78 332.179 15.78C331.605 15.78 331.059 15.9267 330.539 16.22C330.032 16.5133 329.619 16.94 329.299 17.5C328.992 18.06 328.839 18.72 328.839 19.48C328.839 20.24 328.992 20.9067 329.299 21.48C329.619 22.04 330.032 22.4667 330.539 22.76C331.059 23.0533 331.605 23.2 332.179 23.2C332.765 23.2 333.312 23.0533 333.819 22.76C334.339 22.4533 334.752 22.0133 335.059 21.44C335.379 20.8667 335.539 20.2 335.539 19.44ZM342.393 15.6C342.78 15.0933 343.307 14.6667 343.973 14.32C344.64 13.9733 345.393 13.8 346.233 13.8C347.193 13.8 348.067 14.04 348.853 14.52C349.653 14.9867 350.28 15.6467 350.733 16.5C351.187 17.3533 351.413 18.3333 351.413 19.44C351.413 20.5467 351.187 21.54 350.733 22.42C350.28 23.2867 349.653 23.9667 348.853 24.46C348.067 24.94 347.193 25.18 346.233 25.18C345.393 25.18 344.647 25.0133 343.993 24.68C343.34 24.3333 342.807 23.9067 342.393 23.4V30.24H340.113V13.98H342.393V15.6ZM349.093 19.44C349.093 18.68 348.933 18.0267 348.613 17.48C348.307 16.92 347.893 16.5 347.373 16.22C346.867 15.9267 346.32 15.78 345.733 15.78C345.16 15.78 344.613 15.9267 344.093 16.22C343.587 16.5133 343.173 16.94 342.853 17.5C342.547 18.06 342.393 18.72 342.393 19.48C342.393 20.24 342.547 20.9067 342.853 21.48C343.173 22.04 343.587 22.4667 344.093 22.76C344.613 23.0533 345.16 23.2 345.733 23.2C346.32 23.2 346.867 23.0533 347.373 22.76C347.893 22.4533 348.307 22.0133 348.613 21.44C348.933 20.8667 349.093 20.2 349.093 19.44ZM358.448 25.18C357.408 25.18 356.468 24.9467 355.628 24.48C354.788 24 354.128 23.3333 353.648 22.48C353.168 21.6133 352.928 20.6133 352.928 19.48C352.928 18.36 353.175 17.3667 353.668 16.5C354.161 15.6333 354.835 14.9667 355.688 14.5C356.541 14.0333 357.495 13.8 358.548 13.8C359.601 13.8 360.555 14.0333 361.408 14.5C362.261 14.9667 362.935 15.6333 363.428 16.5C363.921 17.3667 364.168 18.36 364.168 19.48C364.168 20.6 363.915 21.5933 363.408 22.46C362.901 23.3267 362.208 24 361.328 24.48C360.461 24.9467 359.501 25.18 358.448 25.18ZM358.448 23.2C359.035 23.2 359.581 23.06 360.088 22.78C360.608 22.5 361.028 22.08 361.348 21.52C361.668 20.96 361.828 20.28 361.828 19.48C361.828 18.68 361.675 18.0067 361.368 17.46C361.061 16.9 360.655 16.48 360.148 16.2C359.641 15.92 359.095 15.78 358.508 15.78C357.921 15.78 357.375 15.92 356.868 16.2C356.375 16.48 355.981 16.9 355.688 17.46C355.395 18.0067 355.248 18.68 355.248 19.48C355.248 20.6667 355.548 21.5867 356.148 22.24C356.761 22.88 357.528 23.2 358.448 23.2ZM368.702 15.58C369.035 15.02 369.475 14.5867 370.022 14.28C370.582 13.96 371.242 13.8 372.002 13.8V16.16H371.422C370.529 16.16 369.849 16.3867 369.382 16.84C368.929 17.2933 368.702 18.08 368.702 19.2V25H366.422V13.98H368.702V15.58ZM376.758 15.84V21.94C376.758 22.3533 376.851 22.6533 377.038 22.84C377.238 23.0133 377.571 23.1 378.038 23.1H379.438V25H377.638C376.611 25 375.824 24.76 375.278 24.28C374.731 23.8 374.458 23.02 374.458 21.94V15.84H373.158V13.98H374.458V11.24H376.758V13.98H379.438V15.84H376.758Z" fill="white"/>
<path d="M300.774 67.718C300.774 66.494 301.05 65.396 301.602 64.424C302.154 63.44 302.904 62.672 303.852 62.12C304.812 61.568 305.874 61.292 307.038 61.292C308.406 61.292 309.6 61.622 310.62 62.282C311.64 62.942 312.384 63.878 312.852 65.09H310.89C310.542 64.334 310.038 63.752 309.378 63.344C308.73 62.936 307.95 62.732 307.038 62.732C306.162 62.732 305.376 62.936 304.68 63.344C303.984 63.752 303.438 64.334 303.042 65.09C302.646 65.834 302.448 66.71 302.448 67.718C302.448 68.714 302.646 69.59 303.042 70.346C303.438 71.09 303.984 71.666 304.68 72.074C305.376 72.482 306.162 72.686 307.038 72.686C307.95 72.686 308.73 72.488 309.378 72.092C310.038 71.684 310.542 71.102 310.89 70.346H312.852C312.384 71.546 311.64 72.476 310.62 73.136C309.6 73.784 308.406 74.108 307.038 74.108C305.874 74.108 304.812 73.838 303.852 73.298C302.904 72.746 302.154 71.984 301.602 71.012C301.05 70.04 300.774 68.942 300.774 67.718ZM319.592 74.162C318.668 74.162 317.828 73.952 317.072 73.532C316.328 73.112 315.74 72.518 315.308 71.75C314.888 70.97 314.678 70.07 314.678 69.05C314.678 68.042 314.894 67.154 315.326 66.386C315.77 65.606 316.37 65.012 317.126 64.604C317.882 64.184 318.728 63.974 319.664 63.974C320.6 63.974 321.446 64.184 322.202 64.604C322.958 65.012 323.552 65.6 323.984 66.368C324.428 67.136 324.65 68.03 324.65 69.05C324.65 70.07 324.422 70.97 323.966 71.75C323.522 72.518 322.916 73.112 322.148 73.532C321.38 73.952 320.528 74.162 319.592 74.162ZM319.592 72.722C320.18 72.722 320.732 72.584 321.248 72.308C321.764 72.032 322.178 71.618 322.49 71.066C322.814 70.514 322.976 69.842 322.976 69.05C322.976 68.258 322.82 67.586 322.508 67.034C322.196 66.482 321.788 66.074 321.284 65.81C320.78 65.534 320.234 65.396 319.646 65.396C319.046 65.396 318.494 65.534 317.99 65.81C317.498 66.074 317.102 66.482 316.802 67.034C316.502 67.586 316.352 68.258 316.352 69.05C316.352 69.854 316.496 70.532 316.784 71.084C317.084 71.636 317.48 72.05 317.972 72.326C318.464 72.59 319.004 72.722 319.592 72.722ZM331.61 63.956C332.81 63.956 333.782 64.322 334.526 65.054C335.27 65.774 335.642 66.818 335.642 68.186V74H334.022V68.42C334.022 67.436 333.776 66.686 333.284 66.17C332.792 65.642 332.12 65.378 331.268 65.378C330.404 65.378 329.714 65.648 329.198 66.188C328.694 66.728 328.442 67.514 328.442 68.546V74H326.804V64.136H328.442V65.54C328.766 65.036 329.204 64.646 329.756 64.37C330.32 64.094 330.938 63.956 331.61 63.956ZM340.316 65.486V71.3C340.316 71.78 340.418 72.122 340.622 72.326C340.826 72.518 341.18 72.614 341.684 72.614H342.89V74H341.414C340.502 74 339.818 73.79 339.362 73.37C338.906 72.95 338.678 72.26 338.678 71.3V65.486H337.4V64.136H338.678V61.652H340.316V64.136H342.89V65.486H340.316ZM344.262 69.032C344.262 68.024 344.466 67.142 344.874 66.386C345.282 65.618 345.84 65.024 346.548 64.604C347.268 64.184 348.066 63.974 348.942 63.974C349.806 63.974 350.556 64.16 351.192 64.532C351.828 64.904 352.302 65.372 352.614 65.936V64.136H354.27V74H352.614V72.164C352.29 72.74 351.804 73.22 351.156 73.604C350.52 73.976 349.776 74.162 348.924 74.162C348.048 74.162 347.256 73.946 346.548 73.514C345.84 73.082 345.282 72.476 344.874 71.696C344.466 70.916 344.262 70.028 344.262 69.032ZM352.614 69.05C352.614 68.306 352.464 67.658 352.164 67.106C351.864 66.554 351.456 66.134 350.94 65.846C350.436 65.546 349.878 65.396 349.266 65.396C348.654 65.396 348.096 65.54 347.592 65.828C347.088 66.116 346.686 66.536 346.386 67.088C346.086 67.64 345.936 68.288 345.936 69.032C345.936 69.788 346.086 70.448 346.386 71.012C346.686 71.564 347.088 71.99 347.592 72.29C348.096 72.578 348.654 72.722 349.266 72.722C349.878 72.722 350.436 72.578 350.94 72.29C351.456 71.99 351.864 71.564 352.164 71.012C352.464 70.448 352.614 69.794 352.614 69.05ZM356.426 69.05C356.426 68.03 356.63 67.142 357.038 66.386C357.446 65.618 358.01 65.024 358.73 64.604C359.462 64.184 360.296 63.974 361.232 63.974C362.444 63.974 363.44 64.268 364.22 64.856C365.012 65.444 365.534 66.26 365.786 67.304H364.022C363.854 66.704 363.524 66.23 363.032 65.882C362.552 65.534 361.952 65.36 361.232 65.36C360.296 65.36 359.54 65.684 358.964 66.332C358.388 66.968 358.1 67.874 358.1 69.05C358.1 70.238 358.388 71.156 358.964 71.804C359.54 72.452 360.296 72.776 361.232 72.776C361.952 72.776 362.552 72.608 363.032 72.272C363.512 71.936 363.842 71.456 364.022 70.832H365.786C365.522 71.84 364.994 72.65 364.202 73.262C363.41 73.862 362.42 74.162 361.232 74.162C360.296 74.162 359.462 73.952 358.73 73.532C358.01 73.112 357.446 72.518 357.038 71.75C356.63 70.982 356.426 70.082 356.426 69.05ZM369.97 65.486V71.3C369.97 71.78 370.072 72.122 370.276 72.326C370.48 72.518 370.834 72.614 371.338 72.614H372.544V74H371.068C370.156 74 369.472 73.79 369.016 73.37C368.56 72.95 368.332 72.26 368.332 71.3V65.486H367.054V64.136H368.332V61.652H369.97V64.136H372.544V65.486H369.97ZM380.929 61.454V69.392C380.929 70.508 381.199 71.336 381.739 71.876C382.291 72.416 383.053 72.686 384.025 72.686C384.985 72.686 385.735 72.416 386.275 71.876C386.827 71.336 387.103 70.508 387.103 69.392V61.454H388.741V69.374C388.741 70.418 388.531 71.3 388.111 72.02C387.691 72.728 387.121 73.256 386.401 73.604C385.693 73.952 384.895 74.126 384.007 74.126C383.119 74.126 382.315 73.952 381.595 73.604C380.887 73.256 380.323 72.728 379.903 72.02C379.495 71.3 379.291 70.418 379.291 69.374V61.454H380.929ZM394.966 74.162C394.21 74.162 393.532 74.036 392.932 73.784C392.332 73.52 391.858 73.16 391.51 72.704C391.162 72.236 390.97 71.702 390.934 71.102H392.626C392.674 71.594 392.902 71.996 393.31 72.308C393.73 72.62 394.276 72.776 394.948 72.776C395.572 72.776 396.064 72.638 396.424 72.362C396.784 72.086 396.964 71.738 396.964 71.318C396.964 70.886 396.772 70.568 396.388 70.364C396.004 70.148 395.41 69.938 394.606 69.734C393.874 69.542 393.274 69.35 392.806 69.158C392.35 68.954 391.954 68.66 391.618 68.276C391.294 67.88 391.132 67.364 391.132 66.728C391.132 66.224 391.282 65.762 391.582 65.342C391.882 64.922 392.308 64.592 392.86 64.352C393.412 64.1 394.042 63.974 394.75 63.974C395.842 63.974 396.724 64.25 397.396 64.802C398.068 65.354 398.428 66.11 398.476 67.07H396.838C396.802 66.554 396.592 66.14 396.208 65.828C395.836 65.516 395.332 65.36 394.696 65.36C394.108 65.36 393.64 65.486 393.292 65.738C392.944 65.99 392.77 66.32 392.77 66.728C392.77 67.052 392.872 67.322 393.076 67.538C393.292 67.742 393.556 67.91 393.868 68.042C394.192 68.162 394.636 68.3 395.2 68.456C395.908 68.648 396.484 68.84 396.928 69.032C397.372 69.212 397.75 69.488 398.062 69.86C398.386 70.232 398.554 70.718 398.566 71.318C398.566 71.858 398.416 72.344 398.116 72.776C397.816 73.208 397.39 73.55 396.838 73.802C396.298 74.042 395.674 74.162 394.966 74.162Z" fill="white"/>
<path d="M309.108 96.454V97.786H305.688V109H304.05V97.786H300.612V96.454H309.108ZM320.124 103.69C320.124 104.002 320.106 104.332 320.07 104.68H312.186C312.246 105.652 312.576 106.414 313.176 106.966C313.788 107.506 314.526 107.776 315.39 107.776C316.098 107.776 316.686 107.614 317.154 107.29C317.634 106.954 317.97 106.51 318.162 105.958H319.926C319.662 106.906 319.134 107.68 318.342 108.28C317.55 108.868 316.566 109.162 315.39 109.162C314.454 109.162 313.614 108.952 312.87 108.532C312.138 108.112 311.562 107.518 311.142 106.75C310.722 105.97 310.512 105.07 310.512 104.05C310.512 103.03 310.716 102.136 311.124 101.368C311.532 100.6 312.102 100.012 312.834 99.604C313.578 99.184 314.43 98.974 315.39 98.974C316.326 98.974 317.154 99.178 317.874 99.586C318.594 99.994 319.146 100.558 319.53 101.278C319.926 101.986 320.124 102.79 320.124 103.69ZM318.432 103.348C318.432 102.724 318.294 102.19 318.018 101.746C317.742 101.29 317.364 100.948 316.884 100.72C316.416 100.48 315.894 100.36 315.318 100.36C314.49 100.36 313.782 100.624 313.194 101.152C312.618 101.68 312.288 102.412 312.204 103.348H318.432ZM323.924 100.738C324.212 100.174 324.62 99.736 325.148 99.424C325.688 99.112 326.342 98.956 327.11 98.956V100.648H326.678C324.842 100.648 323.924 101.644 323.924 103.636V109H322.286V99.136H323.924V100.738ZM340.863 98.956C341.631 98.956 342.315 99.118 342.915 99.442C343.515 99.754 343.989 100.228 344.337 100.864C344.685 101.5 344.859 102.274 344.859 103.186V109H343.239V103.42C343.239 102.436 342.993 101.686 342.501 101.17C342.021 100.642 341.367 100.378 340.539 100.378C339.687 100.378 339.009 100.654 338.505 101.206C338.001 101.746 337.749 102.532 337.749 103.564V109H336.129V103.42C336.129 102.436 335.883 101.686 335.391 101.17C334.911 100.642 334.257 100.378 333.429 100.378C332.577 100.378 331.899 100.654 331.395 101.206C330.891 101.746 330.639 102.532 330.639 103.564V109H329.001V99.136H330.639V100.558C330.963 100.042 331.395 99.646 331.935 99.37C332.487 99.094 333.093 98.956 333.753 98.956C334.581 98.956 335.313 99.142 335.949 99.514C336.585 99.886 337.059 100.432 337.371 101.152C337.647 100.456 338.103 99.916 338.739 99.532C339.375 99.148 340.083 98.956 340.863 98.956ZM351.038 109.162C350.282 109.162 349.604 109.036 349.004 108.784C348.404 108.52 347.93 108.16 347.582 107.704C347.234 107.236 347.042 106.702 347.006 106.102H348.698C348.746 106.594 348.974 106.996 349.382 107.308C349.802 107.62 350.348 107.776 351.02 107.776C351.644 107.776 352.136 107.638 352.496 107.362C352.856 107.086 353.036 106.738 353.036 106.318C353.036 105.886 352.844 105.568 352.46 105.364C352.076 105.148 351.482 104.938 350.678 104.734C349.946 104.542 349.346 104.35 348.878 104.158C348.422 103.954 348.026 103.66 347.69 103.276C347.366 102.88 347.204 102.364 347.204 101.728C347.204 101.224 347.354 100.762 347.654 100.342C347.954 99.922 348.38 99.592 348.932 99.352C349.484 99.1 350.114 98.974 350.822 98.974C351.914 98.974 352.796 99.25 353.468 99.802C354.14 100.354 354.5 101.11 354.548 102.07H352.91C352.874 101.554 352.664 101.14 352.28 100.828C351.908 100.516 351.404 100.36 350.768 100.36C350.18 100.36 349.712 100.486 349.364 100.738C349.016 100.99 348.842 101.32 348.842 101.728C348.842 102.052 348.944 102.322 349.148 102.538C349.364 102.742 349.628 102.91 349.94 103.042C350.264 103.162 350.708 103.3 351.272 103.456C351.98 103.648 352.556 103.84 353 104.032C353.444 104.212 353.822 104.488 354.134 104.86C354.458 105.232 354.626 105.718 354.638 106.318C354.638 106.858 354.488 107.344 354.188 107.776C353.888 108.208 353.462 108.55 352.91 108.802C352.37 109.042 351.746 109.162 351.038 109.162ZM366.051 109.162C365.127 109.162 364.287 108.952 363.531 108.532C362.787 108.112 362.199 107.518 361.767 106.75C361.347 105.97 361.137 105.07 361.137 104.05C361.137 103.042 361.353 102.154 361.785 101.386C362.229 100.606 362.829 100.012 363.585 99.604C364.341 99.184 365.187 98.974 366.123 98.974C367.059 98.974 367.905 99.184 368.661 99.604C369.417 100.012 370.011 100.6 370.443 101.368C370.887 102.136 371.109 103.03 371.109 104.05C371.109 105.07 370.881 105.97 370.425 106.75C369.981 107.518 369.375 108.112 368.607 108.532C367.839 108.952 366.987 109.162 366.051 109.162ZM366.051 107.722C366.639 107.722 367.191 107.584 367.707 107.308C368.223 107.032 368.637 106.618 368.949 106.066C369.273 105.514 369.435 104.842 369.435 104.05C369.435 103.258 369.279 102.586 368.967 102.034C368.655 101.482 368.247 101.074 367.743 100.81C367.239 100.534 366.693 100.396 366.105 100.396C365.505 100.396 364.953 100.534 364.449 100.81C363.957 101.074 363.561 101.482 363.261 102.034C362.961 102.586 362.811 103.258 362.811 104.05C362.811 104.854 362.955 105.532 363.243 106.084C363.543 106.636 363.939 107.05 364.431 107.326C364.923 107.59 365.463 107.722 366.051 107.722ZM377.277 100.486H375.207V109H373.569V100.486H372.291V99.136H373.569V98.434C373.569 97.33 373.851 96.526 374.415 96.022C374.991 95.506 375.909 95.248 377.169 95.248V96.616C376.449 96.616 375.939 96.76 375.639 97.048C375.351 97.324 375.207 97.786 375.207 98.434V99.136H377.277V100.486ZM387.964 109.126C387.136 109.126 386.392 108.982 385.732 108.694C385.084 108.394 384.574 107.986 384.202 107.47C383.83 106.942 383.638 106.336 383.626 105.652H385.372C385.432 106.24 385.672 106.738 386.092 107.146C386.524 107.542 387.148 107.74 387.964 107.74C388.744 107.74 389.356 107.548 389.8 107.164C390.256 106.768 390.484 106.264 390.484 105.652C390.484 105.172 390.352 104.782 390.088 104.482C389.824 104.182 389.494 103.954 389.098 103.798C388.702 103.642 388.168 103.474 387.496 103.294C386.668 103.078 386.002 102.862 385.498 102.646C385.006 102.43 384.58 102.094 384.22 101.638C383.872 101.17 383.698 100.546 383.698 99.766C383.698 99.082 383.872 98.476 384.22 97.948C384.568 97.42 385.054 97.012 385.678 96.724C386.314 96.436 387.04 96.292 387.856 96.292C389.032 96.292 389.992 96.586 390.736 97.174C391.492 97.762 391.918 98.542 392.014 99.514H390.214C390.154 99.034 389.902 98.614 389.458 98.254C389.014 97.882 388.426 97.696 387.694 97.696C387.01 97.696 386.452 97.876 386.02 98.236C385.588 98.584 385.372 99.076 385.372 99.712C385.372 100.168 385.498 100.54 385.75 100.828C386.014 101.116 386.332 101.338 386.704 101.494C387.088 101.638 387.622 101.806 388.306 101.998C389.134 102.226 389.8 102.454 390.304 102.682C390.808 102.898 391.24 103.24 391.6 103.708C391.96 104.164 392.14 104.788 392.14 105.58C392.14 106.192 391.978 106.768 391.654 107.308C391.33 107.848 390.85 108.286 390.214 108.622C389.578 108.958 388.828 109.126 387.964 109.126ZM403.55 103.69C403.55 104.002 403.532 104.332 403.496 104.68H395.612C395.672 105.652 396.002 106.414 396.602 106.966C397.214 107.506 397.952 107.776 398.816 107.776C399.524 107.776 400.112 107.614 400.58 107.29C401.06 106.954 401.396 106.51 401.588 105.958H403.352C403.088 106.906 402.56 107.68 401.768 108.28C400.976 108.868 399.992 109.162 398.816 109.162C397.88 109.162 397.04 108.952 396.296 108.532C395.564 108.112 394.988 107.518 394.568 106.75C394.148 105.97 393.938 105.07 393.938 104.05C393.938 103.03 394.142 102.136 394.55 101.368C394.958 100.6 395.528 100.012 396.26 99.604C397.004 99.184 397.856 98.974 398.816 98.974C399.752 98.974 400.58 99.178 401.3 99.586C402.02 99.994 402.572 100.558 402.956 101.278C403.352 101.986 403.55 102.79 403.55 103.69ZM401.858 103.348C401.858 102.724 401.72 102.19 401.444 101.746C401.168 101.29 400.79 100.948 400.31 100.72C399.842 100.48 399.32 100.36 398.744 100.36C397.916 100.36 397.208 100.624 396.62 101.152C396.044 101.68 395.714 102.412 395.63 103.348H401.858ZM407.35 100.738C407.638 100.174 408.046 99.736 408.574 99.424C409.114 99.112 409.768 98.956 410.536 98.956V100.648H410.104C408.268 100.648 407.35 101.644 407.35 103.636V109H405.712V99.136H407.35V100.738ZM416.099 107.488L419.159 99.136H420.905L417.035 109H415.127L411.257 99.136H413.021L416.099 107.488ZM423.363 97.534C423.051 97.534 422.787 97.426 422.571 97.21C422.355 96.994 422.247 96.73 422.247 96.418C422.247 96.106 422.355 95.842 422.571 95.626C422.787 95.41 423.051 95.302 423.363 95.302C423.663 95.302 423.915 95.41 424.119 95.626C424.335 95.842 424.443 96.106 424.443 96.418C424.443 96.73 424.335 96.994 424.119 97.21C423.915 97.426 423.663 97.534 423.363 97.534ZM424.155 99.136V109H422.517V99.136H424.155ZM426.335 104.05C426.335 103.03 426.539 102.142 426.947 101.386C427.355 100.618 427.919 100.024 428.639 99.604C429.371 99.184 430.205 98.974 431.141 98.974C432.353 98.974 433.349 99.268 434.129 99.856C434.921 100.444 435.443 101.26 435.695 102.304H433.931C433.763 101.704 433.433 101.23 432.941 100.882C432.461 100.534 431.861 100.36 431.141 100.36C430.205 100.36 429.449 100.684 428.873 101.332C428.297 101.968 428.009 102.874 428.009 104.05C428.009 105.238 428.297 106.156 428.873 106.804C429.449 107.452 430.205 107.776 431.141 107.776C431.861 107.776 432.461 107.608 432.941 107.272C433.421 106.936 433.751 106.456 433.931 105.832H435.695C435.431 106.84 434.903 107.65 434.111 108.262C433.319 108.862 432.329 109.162 431.141 109.162C430.205 109.162 429.371 108.952 428.639 108.532C427.919 108.112 427.355 107.518 426.947 106.75C426.539 105.982 426.335 105.082 426.335 104.05ZM446.88 103.69C446.88 104.002 446.862 104.332 446.826 104.68H438.942C439.002 105.652 439.332 106.414 439.932 106.966C440.544 107.506 441.282 107.776 442.146 107.776C442.854 107.776 443.442 107.614 443.91 107.29C444.39 106.954 444.726 106.51 444.918 105.958H446.682C446.418 106.906 445.89 107.68 445.098 108.28C444.306 108.868 443.322 109.162 442.146 109.162C441.21 109.162 440.37 108.952 439.626 108.532C438.894 108.112 438.318 107.518 437.898 106.75C437.478 105.97 437.268 105.07 437.268 104.05C437.268 103.03 437.472 102.136 437.88 101.368C438.288 100.6 438.858 100.012 439.59 99.604C440.334 99.184 441.186 98.974 442.146 98.974C443.082 98.974 443.91 99.178 444.63 99.586C445.35 99.994 445.902 100.558 446.286 101.278C446.682 101.986 446.88 102.79 446.88 103.69ZM445.188 103.348C445.188 102.724 445.05 102.19 444.774 101.746C444.498 101.29 444.12 100.948 443.64 100.72C443.172 100.48 442.65 100.36 442.074 100.36C441.246 100.36 440.538 100.624 439.95 101.152C439.374 101.68 439.044 102.412 438.96 103.348H445.188Z" fill="white"/>
<path d="M309.774 135.126C309.774 136.17 309.414 137.04 308.694 137.736C307.986 138.42 306.9 138.762 305.436 138.762H303.024V144H301.386V131.454H305.436C306.852 131.454 307.926 131.796 308.658 132.48C309.402 133.164 309.774 134.046 309.774 135.126ZM305.436 137.412C306.348 137.412 307.02 137.214 307.452 136.818C307.884 136.422 308.1 135.858 308.1 135.126C308.1 133.578 307.212 132.804 305.436 132.804H303.024V137.412H305.436ZM313.448 135.738C313.736 135.174 314.144 134.736 314.672 134.424C315.212 134.112 315.866 133.956 316.634 133.956V135.648H316.202C314.366 135.648 313.448 136.644 313.448 138.636V144H311.81V134.136H313.448V135.738ZM319.371 132.534C319.059 132.534 318.795 132.426 318.579 132.21C318.363 131.994 318.255 131.73 318.255 131.418C318.255 131.106 318.363 130.842 318.579 130.626C318.795 130.41 319.059 130.302 319.371 130.302C319.671 130.302 319.923 130.41 320.127 130.626C320.343 130.842 320.451 131.106 320.451 131.418C320.451 131.73 320.343 131.994 320.127 132.21C319.923 132.426 319.671 132.534 319.371 132.534ZM320.163 134.136V144H318.525V134.136H320.163ZM326.626 142.488L329.686 134.136H331.432L327.562 144H325.654L321.784 134.136H323.548L326.626 142.488ZM332.432 139.032C332.432 138.024 332.636 137.142 333.044 136.386C333.452 135.618 334.01 135.024 334.718 134.604C335.438 134.184 336.236 133.974 337.112 133.974C337.976 133.974 338.726 134.16 339.362 134.532C339.998 134.904 340.472 135.372 340.784 135.936V134.136H342.44V144H340.784V142.164C340.46 142.74 339.974 143.22 339.326 143.604C338.69 143.976 337.946 144.162 337.094 144.162C336.218 144.162 335.426 143.946 334.718 143.514C334.01 143.082 333.452 142.476 333.044 141.696C332.636 140.916 332.432 140.028 332.432 139.032ZM340.784 139.05C340.784 138.306 340.634 137.658 340.334 137.106C340.034 136.554 339.626 136.134 339.11 135.846C338.606 135.546 338.048 135.396 337.436 135.396C336.824 135.396 336.266 135.54 335.762 135.828C335.258 136.116 334.856 136.536 334.556 137.088C334.256 137.64 334.106 138.288 334.106 139.032C334.106 139.788 334.256 140.448 334.556 141.012C334.856 141.564 335.258 141.99 335.762 142.29C336.266 142.578 336.824 142.722 337.436 142.722C338.048 142.722 338.606 142.578 339.11 142.29C339.626 141.99 340.034 141.564 340.334 141.012C340.634 140.448 340.784 139.794 340.784 139.05ZM344.596 139.05C344.596 138.03 344.8 137.142 345.208 136.386C345.616 135.618 346.18 135.024 346.9 134.604C347.632 134.184 348.466 133.974 349.402 133.974C350.614 133.974 351.61 134.268 352.39 134.856C353.182 135.444 353.704 136.26 353.956 137.304H352.192C352.024 136.704 351.694 136.23 351.202 135.882C350.722 135.534 350.122 135.36 349.402 135.36C348.466 135.36 347.71 135.684 347.134 136.332C346.558 136.968 346.27 137.874 346.27 139.05C346.27 140.238 346.558 141.156 347.134 141.804C347.71 142.452 348.466 142.776 349.402 142.776C350.122 142.776 350.722 142.608 351.202 142.272C351.682 141.936 352.012 141.456 352.192 140.832H353.956C353.692 141.84 353.164 142.65 352.372 143.262C351.58 143.862 350.59 144.162 349.402 144.162C348.466 144.162 347.632 143.952 346.9 143.532C346.18 143.112 345.616 142.518 345.208 141.75C344.8 140.982 344.596 140.082 344.596 139.05ZM364.638 134.136L358.698 148.644H357.006L358.95 143.892L354.972 134.136H356.79L359.886 142.128L362.946 134.136H364.638ZM379.471 135.126C379.471 136.17 379.111 137.04 378.391 137.736C377.683 138.42 376.597 138.762 375.133 138.762H372.721V144H371.083V131.454H375.133C376.549 131.454 377.623 131.796 378.355 132.48C379.099 133.164 379.471 134.046 379.471 135.126ZM375.133 137.412C376.045 137.412 376.717 137.214 377.149 136.818C377.581 136.422 377.797 135.858 377.797 135.126C377.797 133.578 376.909 132.804 375.133 132.804H372.721V137.412H375.133ZM385.809 144.162C384.885 144.162 384.045 143.952 383.289 143.532C382.545 143.112 381.957 142.518 381.525 141.75C381.105 140.97 380.895 140.07 380.895 139.05C380.895 138.042 381.111 137.154 381.543 136.386C381.987 135.606 382.587 135.012 383.343 134.604C384.099 134.184 384.945 133.974 385.881 133.974C386.817 133.974 387.663 134.184 388.419 134.604C389.175 135.012 389.769 135.6 390.201 136.368C390.645 137.136 390.867 138.03 390.867 139.05C390.867 140.07 390.639 140.97 390.183 141.75C389.739 142.518 389.133 143.112 388.365 143.532C387.597 143.952 386.745 144.162 385.809 144.162ZM385.809 142.722C386.397 142.722 386.949 142.584 387.465 142.308C387.981 142.032 388.395 141.618 388.707 141.066C389.031 140.514 389.193 139.842 389.193 139.05C389.193 138.258 389.037 137.586 388.725 137.034C388.413 136.482 388.005 136.074 387.501 135.81C386.997 135.534 386.451 135.396 385.863 135.396C385.263 135.396 384.711 135.534 384.207 135.81C383.715 136.074 383.319 136.482 383.019 137.034C382.719 137.586 382.569 138.258 382.569 139.05C382.569 139.854 382.713 140.532 383.001 141.084C383.301 141.636 383.697 142.05 384.189 142.326C384.681 142.59 385.221 142.722 385.809 142.722ZM394.659 130.68V144H393.021V130.68H394.659ZM398.296 132.534C397.984 132.534 397.72 132.426 397.504 132.21C397.288 131.994 397.18 131.73 397.18 131.418C397.18 131.106 397.288 130.842 397.504 130.626C397.72 130.41 397.984 130.302 398.296 130.302C398.596 130.302 398.848 130.41 399.052 130.626C399.268 130.842 399.376 131.106 399.376 131.418C399.376 131.73 399.268 131.994 399.052 132.21C398.848 132.426 398.596 132.534 398.296 132.534ZM399.088 134.136V144H397.45V134.136H399.088ZM401.268 139.05C401.268 138.03 401.472 137.142 401.88 136.386C402.288 135.618 402.852 135.024 403.572 134.604C404.304 134.184 405.138 133.974 406.074 133.974C407.286 133.974 408.282 134.268 409.062 134.856C409.854 135.444 410.376 136.26 410.628 137.304H408.864C408.696 136.704 408.366 136.23 407.874 135.882C407.394 135.534 406.794 135.36 406.074 135.36C405.138 135.36 404.382 135.684 403.806 136.332C403.23 136.968 402.942 137.874 402.942 139.05C402.942 140.238 403.23 141.156 403.806 141.804C404.382 142.452 405.138 142.776 406.074 142.776C406.794 142.776 407.394 142.608 407.874 142.272C408.354 141.936 408.684 141.456 408.864 140.832H410.628C410.364 141.84 409.836 142.65 409.044 143.262C408.252 143.862 407.262 144.162 406.074 144.162C405.138 144.162 404.304 143.952 403.572 143.532C402.852 143.112 402.288 142.518 401.88 141.75C401.472 140.982 401.268 140.082 401.268 139.05ZM421.31 134.136L415.37 148.644H413.678L415.622 143.892L411.644 134.136H413.462L416.558 142.128L419.618 134.136H421.31Z" fill="white"/>
<path d="M11.22 12.24C11.22 12.9467 11.0533 13.6133 10.72 14.24C10.3867 14.8667 9.85333 15.38 9.12 15.78C8.38667 16.1667 7.44667 16.36 6.3 16.36H3.78V22H1.5V8.1H6.3C7.36667 8.1 8.26667 8.28667 9 8.66C9.74667 9.02 10.3 9.51333 10.66 10.14C11.0333 10.7667 11.22 11.4667 11.22 12.24ZM6.3 14.5C7.16667 14.5 7.81333 14.3067 8.24 13.92C8.66667 13.52 8.88 12.96 8.88 12.24C8.88 10.72 8.02 9.96 6.3 9.96H3.78V14.5H6.3ZM19.8345 22.14C18.5412 22.14 17.3479 21.84 16.2545 21.24C15.1745 20.6267 14.3145 19.78 13.6745 18.7C13.0479 17.6067 12.7345 16.38 12.7345 15.02C12.7345 13.66 13.0479 12.44 13.6745 11.36C14.3145 10.28 15.1745 9.44 16.2545 8.84C17.3479 8.22667 18.5412 7.92 19.8345 7.92C21.1412 7.92 22.3345 8.22667 23.4145 8.84C24.5079 9.44 25.3679 10.28 25.9945 11.36C26.6212 12.44 26.9345 13.66 26.9345 15.02C26.9345 16.38 26.6212 17.6067 25.9945 18.7C25.3679 19.78 24.5079 20.6267 23.4145 21.24C22.3345 21.84 21.1412 22.14 19.8345 22.14ZM19.8345 20.16C20.7545 20.16 21.5745 19.9533 22.2945 19.54C23.0145 19.1133 23.5745 18.5133 23.9745 17.74C24.3879 16.9533 24.5945 16.0467 24.5945 15.02C24.5945 13.9933 24.3879 13.0933 23.9745 12.32C23.5745 11.5467 23.0145 10.9533 22.2945 10.54C21.5745 10.1267 20.7545 9.92 19.8345 9.92C18.9145 9.92 18.0945 10.1267 17.3745 10.54C16.6545 10.9533 16.0879 11.5467 15.6745 12.32C15.2745 13.0933 15.0745 13.9933 15.0745 15.02C15.0745 16.0467 15.2745 16.9533 15.6745 17.74C16.0879 18.5133 16.6545 19.1133 17.3745 19.54C18.0945 19.9533 18.9145 20.16 19.8345 20.16ZM33.8581 22.14C32.9248 22.14 32.0848 21.98 31.3381 21.66C30.5915 21.3267 30.0048 20.86 29.5781 20.26C29.1515 19.66 28.9381 18.96 28.9381 18.16H31.3781C31.4315 18.76 31.6648 19.2533 32.0781 19.64C32.5048 20.0267 33.0981 20.22 33.8581 20.22C34.6448 20.22 35.2581 20.0333 35.6981 19.66C36.1381 19.2733 36.3581 18.78 36.3581 18.18C36.3581 17.7133 36.2181 17.3333 35.9381 17.04C35.6715 16.7467 35.3315 16.52 34.9181 16.36C34.5181 16.2 33.9581 16.0267 33.2381 15.84C32.3315 15.6 31.5915 15.36 31.0181 15.12C30.4581 14.8667 29.9781 14.48 29.5781 13.96C29.1781 13.44 28.9781 12.7467 28.9781 11.88C28.9781 11.08 29.1781 10.38 29.5781 9.78C29.9781 9.18 30.5381 8.72 31.2581 8.4C31.9781 8.08 32.8115 7.92 33.7581 7.92C35.1048 7.92 36.2048 8.26 37.0581 8.94C37.9248 9.60667 38.4048 10.5267 38.4981 11.7H35.9781C35.9381 11.1933 35.6981 10.76 35.2581 10.4C34.8181 10.04 34.2381 9.86 33.5181 9.86C32.8648 9.86 32.3315 10.0267 31.9181 10.36C31.5048 10.6933 31.2981 11.1733 31.2981 11.8C31.2981 12.2267 31.4248 12.58 31.6781 12.86C31.9448 13.1267 32.2781 13.34 32.6781 13.5C33.0781 13.66 33.6248 13.8333 34.3181 14.02C35.2381 14.2733 35.9848 14.5267 36.5581 14.78C37.1448 15.0333 37.6381 15.4267 38.0381 15.96C38.4515 16.48 38.6581 17.18 38.6581 18.06C38.6581 18.7667 38.4648 19.4333 38.0781 20.06C37.7048 20.6867 37.1515 21.1933 36.4181 21.58C35.6981 21.9533 34.8448 22.14 33.8581 22.14ZM50.4284 8.1V9.96H46.7284V22H44.4484V9.96H40.7284V8.1H50.4284ZM57.4175 22.14C56.4842 22.14 55.6442 21.98 54.8975 21.66C54.1508 21.3267 53.5642 20.86 53.1375 20.26C52.7108 19.66 52.4975 18.96 52.4975 18.16H54.9375C54.9908 18.76 55.2242 19.2533 55.6375 19.64C56.0642 20.0267 56.6575 20.22 57.4175 20.22C58.2042 20.22 58.8175 20.0333 59.2575 19.66C59.6975 19.2733 59.9175 18.78 59.9175 18.18C59.9175 17.7133 59.7775 17.3333 59.4975 17.04C59.2308 16.7467 58.8908 16.52 58.4775 16.36C58.0775 16.2 57.5175 16.0267 56.7975 15.84C55.8908 15.6 55.1508 15.36 54.5775 15.12C54.0175 14.8667 53.5375 14.48 53.1375 13.96C52.7375 13.44 52.5375 12.7467 52.5375 11.88C52.5375 11.08 52.7375 10.38 53.1375 9.78C53.5375 9.18 54.0975 8.72 54.8175 8.4C55.5375 8.08 56.3708 7.92 57.3175 7.92C58.6642 7.92 59.7642 8.26 60.6175 8.94C61.4842 9.60667 61.9642 10.5267 62.0575 11.7H59.5375C59.4975 11.1933 59.2575 10.76 58.8175 10.4C58.3775 10.04 57.7975 9.86 57.0775 9.86C56.4242 9.86 55.8908 10.0267 55.4775 10.36C55.0642 10.6933 54.8575 11.1733 54.8575 11.8C54.8575 12.2267 54.9842 12.58 55.2375 12.86C55.5042 13.1267 55.8375 13.34 56.2375 13.5C56.6375 13.66 57.1842 13.8333 57.8775 14.02C58.7975 14.2733 59.5442 14.5267 60.1175 14.78C60.7042 15.0333 61.1975 15.4267 61.5975 15.96C62.0108 16.48 62.2175 17.18 62.2175 18.06C62.2175 18.7667 62.0242 19.4333 61.6375 20.06C61.2642 20.6867 60.7108 21.1933 59.9775 21.58C59.2575 21.9533 58.4042 22.14 57.4175 22.14Z" fill="white"/>
<path d="M7.668 64.538C8.124 64.61 8.538 64.796 8.91 65.096C9.294 65.396 9.594 65.768 9.81 66.212C10.038 66.656 10.152 67.13 10.152 67.634C10.152 68.27 9.99 68.846 9.666 69.362C9.342 69.866 8.868 70.268 8.244 70.568C7.632 70.856 6.906 71 6.066 71H1.386V58.454H5.886C6.738 58.454 7.464 58.598 8.064 58.886C8.664 59.162 9.114 59.54 9.414 60.02C9.714 60.5 9.864 61.04 9.864 61.64C9.864 62.384 9.66 63.002 9.252 63.494C8.856 63.974 8.328 64.322 7.668 64.538ZM3.024 63.872H5.778C6.546 63.872 7.14 63.692 7.56 63.332C7.98 62.972 8.19 62.474 8.19 61.838C8.19 61.202 7.98 60.704 7.56 60.344C7.14 59.984 6.534 59.804 5.742 59.804H3.024V63.872ZM5.922 69.65C6.738 69.65 7.374 69.458 7.83 69.074C8.286 68.69 8.514 68.156 8.514 67.472C8.514 66.776 8.274 66.23 7.794 65.834C7.314 65.426 6.672 65.222 5.868 65.222H3.024V69.65H5.922ZM21.5151 65.69C21.5151 66.002 21.4971 66.332 21.4611 66.68H13.5771C13.6371 67.652 13.9671 68.414 14.5671 68.966C15.1791 69.506 15.9171 69.776 16.7811 69.776C17.4891 69.776 18.0771 69.614 18.5451 69.29C19.0251 68.954 19.3611 68.51 19.5531 67.958H21.3171C21.0531 68.906 20.5251 69.68 19.7331 70.28C18.9411 70.868 17.9571 71.162 16.7811 71.162C15.8451 71.162 15.0051 70.952 14.2611 70.532C13.5291 70.112 12.9531 69.518 12.5331 68.75C12.1131 67.97 11.9031 67.07 11.9031 66.05C11.9031 65.03 12.1071 64.136 12.5151 63.368C12.9231 62.6 13.4931 62.012 14.2251 61.604C14.9691 61.184 15.8211 60.974 16.7811 60.974C17.7171 60.974 18.5451 61.178 19.2651 61.586C19.9851 61.994 20.5371 62.558 20.9211 63.278C21.3171 63.986 21.5151 64.79 21.5151 65.69ZM19.8231 65.348C19.8231 64.724 19.6851 64.19 19.4091 63.746C19.1331 63.29 18.7551 62.948 18.2751 62.72C17.8071 62.48 17.2851 62.36 16.7091 62.36C15.8811 62.36 15.1731 62.624 14.5851 63.152C14.0091 63.68 13.6791 64.412 13.5951 65.348H19.8231ZM25.4052 62.738C25.6932 62.174 26.1012 61.736 26.6292 61.424C27.1692 61.112 27.8232 60.956 28.5912 60.956V62.648H28.1592C26.3232 62.648 25.4052 63.644 25.4052 65.636V71H23.7672V61.136H25.4052V62.738ZM31.418 59.534C31.106 59.534 30.842 59.426 30.626 59.21C30.41 58.994 30.302 58.73 30.302 58.418C30.302 58.106 30.41 57.842 30.626 57.626C30.842 57.41 31.106 57.302 31.418 57.302C31.718 57.302 31.97 57.41 32.174 57.626C32.39 57.842 32.498 58.106 32.498 58.418C32.498 58.73 32.39 58.994 32.174 59.21C31.97 59.426 31.718 59.534 31.418 59.534ZM32.21 61.136V71H30.572V61.136H32.21ZM37.0897 62.486V68.3C37.0897 68.78 37.1917 69.122 37.3957 69.326C37.5997 69.518 37.9537 69.614 38.4577 69.614H39.6637V71H38.1877C37.2757 71 36.5917 70.79 36.1357 70.37C35.6797 69.95 35.4517 69.26 35.4517 68.3V62.486H34.1737V61.136H35.4517V58.652H37.0897V61.136H39.6637V62.486H37.0897ZM41.1263 66.032C41.1263 65.024 41.3303 64.142 41.7383 63.386C42.1463 62.618 42.7043 62.024 43.4123 61.604C44.1323 61.184 44.9303 60.974 45.8063 60.974C46.6703 60.974 47.4203 61.16 48.0563 61.532C48.6923 61.904 49.1663 62.372 49.4783 62.936V61.136H51.1343V71H49.4783V69.164C49.1543 69.74 48.6683 70.22 48.0203 70.604C47.3843 70.976 46.6403 71.162 45.7883 71.162C44.9123 71.162 44.1203 70.946 43.4123 70.514C42.7043 70.082 42.1463 69.476 41.7383 68.696C41.3303 67.916 41.1263 67.028 41.1263 66.032ZM49.4783 66.05C49.4783 65.306 49.3283 64.658 49.0283 64.106C48.7283 63.554 48.3203 63.134 47.8043 62.846C47.3003 62.546 46.7423 62.396 46.1303 62.396C45.5183 62.396 44.9603 62.54 44.4563 62.828C43.9523 63.116 43.5503 63.536 43.2503 64.088C42.9503 64.64 42.8003 65.288 42.8003 66.032C42.8003 66.788 42.9503 67.448 43.2503 68.012C43.5503 68.564 43.9523 68.99 44.4563 69.29C44.9603 69.578 45.5183 69.722 46.1303 69.722C46.7423 69.722 47.3003 69.578 47.8043 69.29C48.3203 68.99 48.7283 68.564 49.0283 68.012C49.3283 67.448 49.4783 66.794 49.4783 66.05Z" fill="white"/>
<path d="M3.024 94.786V98.98H7.596V100.33H3.024V104.65H8.136V106H1.386V93.436H8.136V94.786H3.024ZM14.3765 104.488L17.4365 96.136H19.1825L15.3125 106H13.4045L9.53452 96.136H11.2985L14.3765 104.488ZM29.8844 100.69C29.8844 101.002 29.8664 101.332 29.8304 101.68H21.9464C22.0064 102.652 22.3364 103.414 22.9364 103.966C23.5484 104.506 24.2864 104.776 25.1504 104.776C25.8584 104.776 26.4464 104.614 26.9144 104.29C27.3944 103.954 27.7304 103.51 27.9224 102.958H29.6864C29.4224 103.906 28.8944 104.68 28.1024 105.28C27.3104 105.868 26.3264 106.162 25.1504 106.162C24.2144 106.162 23.3744 105.952 22.6304 105.532C21.8984 105.112 21.3224 104.518 20.9024 103.75C20.4824 102.97 20.2724 102.07 20.2724 101.05C20.2724 100.03 20.4764 99.136 20.8844 98.368C21.2924 97.6 21.8624 97.012 22.5944 96.604C23.3384 96.184 24.1904 95.974 25.1504 95.974C26.0864 95.974 26.9144 96.178 27.6344 96.586C28.3544 96.994 28.9064 97.558 29.2904 98.278C29.6864 98.986 29.8844 99.79 29.8844 100.69ZM28.1924 100.348C28.1924 99.724 28.0544 99.19 27.7784 98.746C27.5024 98.29 27.1244 97.948 26.6444 97.72C26.1764 97.48 25.6544 97.36 25.0784 97.36C24.2504 97.36 23.5424 97.624 22.9544 98.152C22.3784 98.68 22.0484 99.412 21.9644 100.348H28.1924ZM36.9425 95.956C38.1425 95.956 39.1145 96.322 39.8585 97.054C40.6025 97.774 40.9745 98.818 40.9745 100.186V106H39.3545V100.42C39.3545 99.436 39.1085 98.686 38.6165 98.17C38.1245 97.642 37.4525 97.378 36.6005 97.378C35.7365 97.378 35.0465 97.648 34.5305 98.188C34.0265 98.728 33.7745 99.514 33.7745 100.546V106H32.1365V96.136H33.7745V97.54C34.0985 97.036 34.5365 96.646 35.0885 96.37C35.6525 96.094 36.2705 95.956 36.9425 95.956ZM45.7381 97.486V103.3C45.7381 103.78 45.8401 104.122 46.0441 104.326C46.2481 104.518 46.6021 104.614 47.1061 104.614H48.3121V106H46.8361C45.9241 106 45.2401 105.79 44.7841 105.37C44.3281 104.95 44.1001 104.26 44.1001 103.3V97.486H42.8221V96.136H44.1001V93.652H45.7381V96.136H48.3121V97.486H45.7381Z" fill="white"/>
<path d="M11.668 134.538C12.124 134.61 12.538 134.796 12.91 135.096C13.294 135.396 13.594 135.768 13.81 136.212C14.038 136.656 14.152 137.13 14.152 137.634C14.152 138.27 13.99 138.846 13.666 139.362C13.342 139.866 12.868 140.268 12.244 140.568C11.632 140.856 10.906 141 10.066 141H5.386V128.454H9.886C10.738 128.454 11.464 128.598 12.064 128.886C12.664 129.162 13.114 129.54 13.414 130.02C13.714 130.5 13.864 131.04 13.864 131.64C13.864 132.384 13.66 133.002 13.252 133.494C12.856 133.974 12.328 134.322 11.668 134.538ZM7.024 133.872H9.778C10.546 133.872 11.14 133.692 11.56 133.332C11.98 132.972 12.19 132.474 12.19 131.838C12.19 131.202 11.98 130.704 11.56 130.344C11.14 129.984 10.534 129.804 9.742 129.804H7.024V133.872ZM9.922 139.65C10.738 139.65 11.374 139.458 11.83 139.074C12.286 138.69 12.514 138.156 12.514 137.472C12.514 136.776 12.274 136.23 11.794 135.834C11.314 135.426 10.672 135.222 9.868 135.222H7.024V139.65H9.922ZM18.1531 127.68V141H16.5151V127.68H18.1531ZM25.3368 141.162C24.4128 141.162 23.5728 140.952 22.8168 140.532C22.0728 140.112 21.4848 139.518 21.0528 138.75C20.6328 137.97 20.4228 137.07 20.4228 136.05C20.4228 135.042 20.6388 134.154 21.0708 133.386C21.5148 132.606 22.1148 132.012 22.8708 131.604C23.6268 131.184 24.4728 130.974 25.4088 130.974C26.3448 130.974 27.1908 131.184 27.9468 131.604C28.7028 132.012 29.2968 132.6 29.7288 133.368C30.1728 134.136 30.3948 135.03 30.3948 136.05C30.3948 137.07 30.1668 137.97 29.7108 138.75C29.2668 139.518 28.6608 140.112 27.8928 140.532C27.1248 140.952 26.2728 141.162 25.3368 141.162ZM25.3368 139.722C25.9248 139.722 26.4768 139.584 26.9928 139.308C27.5088 139.032 27.9228 138.618 28.2348 138.066C28.5588 137.514 28.7208 136.842 28.7208 136.05C28.7208 135.258 28.5648 134.586 28.2528 134.034C27.9408 133.482 27.5328 133.074 27.0288 132.81C26.5248 132.534 25.9788 132.396 25.3908 132.396C24.7908 132.396 24.2388 132.534 23.7348 132.81C23.2428 133.074 22.8468 133.482 22.5468 134.034C22.2468 134.586 22.0968 135.258 22.0968 136.05C22.0968 136.854 22.2408 137.532 22.5288 138.084C22.8288 138.636 23.2248 139.05 23.7168 139.326C24.2088 139.59 24.7488 139.722 25.3368 139.722ZM36.7064 130.974C37.5584 130.974 38.3024 131.16 38.9384 131.532C39.5864 131.904 40.0664 132.372 40.3784 132.936V131.136H42.0344V141.216C42.0344 142.116 41.8424 142.914 41.4584 143.61C41.0744 144.318 40.5224 144.87 39.8024 145.266C39.0944 145.662 38.2664 145.86 37.3184 145.86C36.0224 145.86 34.9424 145.554 34.0784 144.942C33.2144 144.33 32.7044 143.496 32.5484 142.44H34.1684C34.3484 143.04 34.7204 143.52 35.2844 143.88C35.8484 144.252 36.5264 144.438 37.3184 144.438C38.2184 144.438 38.9504 144.156 39.5144 143.592C40.0904 143.028 40.3784 142.236 40.3784 141.216V139.146C40.0544 139.722 39.5744 140.202 38.9384 140.586C38.3024 140.97 37.5584 141.162 36.7064 141.162C35.8304 141.162 35.0324 140.946 34.3124 140.514C33.6044 140.082 33.0464 139.476 32.6384 138.696C32.2304 137.916 32.0264 137.028 32.0264 136.032C32.0264 135.024 32.2304 134.142 32.6384 133.386C33.0464 132.618 33.6044 132.024 34.3124 131.604C35.0324 131.184 35.8304 130.974 36.7064 130.974ZM40.3784 136.05C40.3784 135.306 40.2284 134.658 39.9284 134.106C39.6284 133.554 39.2204 133.134 38.7044 132.846C38.2004 132.546 37.6424 132.396 37.0304 132.396C36.4184 132.396 35.8604 132.54 35.3564 132.828C34.8524 133.116 34.4504 133.536 34.1504 134.088C33.8504 134.64 33.7004 135.288 33.7004 136.032C33.7004 136.788 33.8504 137.448 34.1504 138.012C34.4504 138.564 34.8524 138.99 35.3564 139.29C35.8604 139.578 36.4184 139.722 37.0304 139.722C37.6424 139.722 38.2004 139.578 38.7044 139.29C39.2204 138.99 39.6284 138.564 39.9284 138.012C40.2284 137.448 40.3784 136.794 40.3784 136.05Z" fill="white"/>
<path d="M116.22 12.24C116.22 12.9467 116.053 13.6133 115.72 14.24C115.387 14.8667 114.853 15.38 114.12 15.78C113.387 16.1667 112.447 16.36 111.3 16.36H108.78V22H106.5V8.1H111.3C112.367 8.1 113.267 8.28667 114 8.66C114.747 9.02 115.3 9.51333 115.66 10.14C116.033 10.7667 116.22 11.4667 116.22 12.24ZM111.3 14.5C112.167 14.5 112.813 14.3067 113.24 13.92C113.667 13.52 113.88 12.96 113.88 12.24C113.88 10.72 113.02 9.96 111.3 9.96H108.78V14.5H111.3ZM120.775 12.58C121.108 12.02 121.548 11.5867 122.095 11.28C122.655 10.96 123.315 10.8 124.075 10.8V13.16H123.495C122.601 13.16 121.921 13.3867 121.455 13.84C121.001 14.2933 120.775 15.08 120.775 16.2V22H118.495V10.98H120.775V12.58ZM131.05 22.18C130.01 22.18 129.07 21.9467 128.23 21.48C127.39 21 126.73 20.3333 126.25 19.48C125.77 18.6133 125.53 17.6133 125.53 16.48C125.53 15.36 125.777 14.3667 126.27 13.5C126.764 12.6333 127.437 11.9667 128.29 11.5C129.144 11.0333 130.097 10.8 131.15 10.8C132.204 10.8 133.157 11.0333 134.01 11.5C134.864 11.9667 135.537 12.6333 136.03 13.5C136.524 14.3667 136.77 15.36 136.77 16.48C136.77 17.6 136.517 18.5933 136.01 19.46C135.504 20.3267 134.81 21 133.93 21.48C133.064 21.9467 132.104 22.18 131.05 22.18ZM131.05 20.2C131.637 20.2 132.184 20.06 132.69 19.78C133.21 19.5 133.63 19.08 133.95 18.52C134.27 17.96 134.43 17.28 134.43 16.48C134.43 15.68 134.277 15.0067 133.97 14.46C133.664 13.9 133.257 13.48 132.75 13.2C132.244 12.92 131.697 12.78 131.11 12.78C130.524 12.78 129.977 12.92 129.47 13.2C128.977 13.48 128.584 13.9 128.29 14.46C127.997 15.0067 127.85 15.68 127.85 16.48C127.85 17.6667 128.15 18.5867 128.75 19.24C129.364 19.88 130.13 20.2 131.05 20.2ZM143.564 10.8C144.418 10.8 145.171 10.9733 145.824 11.32C146.491 11.6533 147.011 12.0733 147.384 12.58V10.98H149.684V22.18C149.684 23.1933 149.471 24.0933 149.044 24.88C148.618 25.68 147.998 26.3067 147.184 26.76C146.384 27.2133 145.424 27.44 144.304 27.44C142.811 27.44 141.571 27.0867 140.584 26.38C139.598 25.6867 139.038 24.74 138.904 23.54H141.164C141.338 24.1133 141.704 24.5733 142.264 24.92C142.838 25.28 143.518 25.46 144.304 25.46C145.224 25.46 145.964 25.18 146.524 24.62C147.098 24.06 147.384 23.2467 147.384 22.18V20.34C146.998 20.86 146.471 21.3 145.804 21.66C145.151 22.0067 144.404 22.18 143.564 22.18C142.604 22.18 141.724 21.94 140.924 21.46C140.138 20.9667 139.511 20.2867 139.044 19.42C138.591 18.54 138.364 17.5467 138.364 16.44C138.364 15.3333 138.591 14.3533 139.044 13.5C139.511 12.6467 140.138 11.9867 140.924 11.52C141.724 11.04 142.604 10.8 143.564 10.8ZM147.384 16.48C147.384 15.72 147.224 15.06 146.904 14.5C146.598 13.94 146.191 13.5133 145.684 13.22C145.178 12.9267 144.631 12.78 144.044 12.78C143.458 12.78 142.911 12.9267 142.404 13.22C141.898 13.5 141.484 13.92 141.164 14.48C140.858 15.0267 140.704 15.68 140.704 16.44C140.704 17.2 140.858 17.8667 141.164 18.44C141.484 19.0133 141.898 19.4533 142.404 19.76C142.924 20.0533 143.471 20.2 144.044 20.2C144.631 20.2 145.178 20.0533 145.684 19.76C146.191 19.4667 146.598 19.04 146.904 18.48C147.224 17.9067 147.384 17.24 147.384 16.48ZM155.059 12.58C155.392 12.02 155.832 11.5867 156.379 11.28C156.939 10.96 157.599 10.8 158.359 10.8V13.16H157.779C156.886 13.16 156.206 13.3867 155.739 13.84C155.286 14.2933 155.059 15.08 155.059 16.2V22H152.779V10.98H155.059V12.58ZM159.795 16.44C159.795 15.3333 160.021 14.3533 160.475 13.5C160.941 12.6467 161.568 11.9867 162.355 11.52C163.155 11.04 164.035 10.8 164.995 10.8C165.861 10.8 166.615 10.9733 167.255 11.32C167.908 11.6533 168.428 12.0733 168.815 12.58V10.98H171.115V22H168.815V20.36C168.428 20.88 167.901 21.3133 167.235 21.66C166.568 22.0067 165.808 22.18 164.955 22.18C164.008 22.18 163.141 21.94 162.355 21.46C161.568 20.9667 160.941 20.2867 160.475 19.42C160.021 18.54 159.795 17.5467 159.795 16.44ZM168.815 16.48C168.815 15.72 168.655 15.06 168.335 14.5C168.028 13.94 167.621 13.5133 167.115 13.22C166.608 12.9267 166.061 12.78 165.475 12.78C164.888 12.78 164.341 12.9267 163.835 13.22C163.328 13.5 162.915 13.92 162.595 14.48C162.288 15.0267 162.135 15.68 162.135 16.44C162.135 17.2 162.288 17.8667 162.595 18.44C162.915 19.0133 163.328 19.4533 163.835 19.76C164.355 20.0533 164.901 20.2 165.475 20.2C166.061 20.2 166.608 20.0533 167.115 19.76C167.621 19.4667 168.028 19.04 168.335 18.48C168.655 17.9067 168.815 17.24 168.815 16.48ZM187.549 10.8C188.416 10.8 189.189 10.98 189.869 11.34C190.563 11.7 191.103 12.2333 191.489 12.94C191.889 13.6467 192.089 14.5 192.089 15.5V22H189.829V15.84C189.829 14.8533 189.583 14.1 189.089 13.58C188.596 13.0467 187.923 12.78 187.069 12.78C186.216 12.78 185.536 13.0467 185.029 13.58C184.536 14.1 184.289 14.8533 184.289 15.84V22H182.029V15.84C182.029 14.8533 181.783 14.1 181.289 13.58C180.796 13.0467 180.123 12.78 179.269 12.78C178.416 12.78 177.736 13.0467 177.229 13.58C176.736 14.1 176.489 14.8533 176.489 15.84V22H174.209V10.98H176.489V12.24C176.863 11.7867 177.336 11.4333 177.909 11.18C178.483 10.9267 179.096 10.8 179.749 10.8C180.629 10.8 181.416 10.9867 182.109 11.36C182.803 11.7333 183.336 12.2733 183.709 12.98C184.043 12.3133 184.563 11.7867 185.269 11.4C185.976 11 186.736 10.8 187.549 10.8ZM199.091 22.18C198.224 22.18 197.444 22.0267 196.751 21.72C196.071 21.4 195.531 20.9733 195.131 20.44C194.731 19.8933 194.517 19.2867 194.491 18.62H196.851C196.891 19.0867 197.111 19.48 197.511 19.8C197.924 20.1067 198.437 20.26 199.051 20.26C199.691 20.26 200.184 20.14 200.531 19.9C200.891 19.6467 201.071 19.3267 201.071 18.94C201.071 18.5267 200.871 18.22 200.471 18.02C200.084 17.82 199.464 17.6 198.611 17.36C197.784 17.1333 197.111 16.9133 196.591 16.7C196.071 16.4867 195.617 16.16 195.231 15.72C194.857 15.28 194.671 14.7 194.671 13.98C194.671 13.3933 194.844 12.86 195.191 12.38C195.537 11.8867 196.031 11.5 196.671 11.22C197.324 10.94 198.071 10.8 198.911 10.8C200.164 10.8 201.171 11.12 201.931 11.76C202.704 12.3867 203.117 13.2467 203.171 14.34H200.891C200.851 13.8467 200.651 13.4533 200.291 13.16C199.931 12.8667 199.444 12.72 198.831 12.72C198.231 12.72 197.771 12.8333 197.451 13.06C197.131 13.2867 196.971 13.5867 196.971 13.96C196.971 14.2533 197.077 14.5 197.291 14.7C197.504 14.9 197.764 15.06 198.071 15.18C198.377 15.2867 198.831 15.4267 199.431 15.6C200.231 15.8133 200.884 16.0333 201.391 16.26C201.911 16.4733 202.357 16.7933 202.731 17.22C203.104 17.6467 203.297 18.2133 203.311 18.92C203.311 19.5467 203.137 20.1067 202.791 20.6C202.444 21.0933 201.951 21.48 201.311 21.76C200.684 22.04 199.944 22.18 199.091 22.18Z" fill="white"/>
<path d="M112.704 58.454V67.724C112.704 68.756 112.386 69.584 111.75 70.208C111.114 70.82 110.274 71.126 109.23 71.126C108.174 71.126 107.328 70.814 106.692 70.19C106.056 69.554 105.738 68.69 105.738 67.598H107.376C107.388 68.21 107.544 68.708 107.844 69.092C108.156 69.476 108.618 69.668 109.23 69.668C109.842 69.668 110.298 69.488 110.598 69.128C110.898 68.756 111.048 68.288 111.048 67.724V58.454H112.704ZM125.021 65.69C125.021 66.002 125.003 66.332 124.967 66.68H117.083C117.143 67.652 117.473 68.414 118.073 68.966C118.685 69.506 119.423 69.776 120.287 69.776C120.995 69.776 121.583 69.614 122.051 69.29C122.531 68.954 122.867 68.51 123.059 67.958H124.823C124.559 68.906 124.031 69.68 123.239 70.28C122.447 70.868 121.463 71.162 120.287 71.162C119.351 71.162 118.511 70.952 117.767 70.532C117.035 70.112 116.459 69.518 116.039 68.75C115.619 67.97 115.409 67.07 115.409 66.05C115.409 65.03 115.613 64.136 116.021 63.368C116.429 62.6 116.999 62.012 117.731 61.604C118.475 61.184 119.327 60.974 120.287 60.974C121.223 60.974 122.051 61.178 122.771 61.586C123.491 61.994 124.043 62.558 124.427 63.278C124.823 63.986 125.021 64.79 125.021 65.69ZM123.329 65.348C123.329 64.724 123.191 64.19 122.915 63.746C122.639 63.29 122.261 62.948 121.781 62.72C121.313 62.48 120.791 62.36 120.215 62.36C119.387 62.36 118.679 62.624 118.091 63.152C117.515 63.68 117.185 64.412 117.101 65.348H123.329ZM128.911 57.68V71H127.273V57.68H128.911ZM131.181 66.032C131.181 65.024 131.385 64.142 131.793 63.386C132.201 62.618 132.759 62.024 133.467 61.604C134.187 61.184 134.985 60.974 135.861 60.974C136.725 60.974 137.475 61.16 138.111 61.532C138.747 61.904 139.221 62.372 139.533 62.936V61.136H141.189V71H139.533V69.164C139.209 69.74 138.723 70.22 138.075 70.604C137.439 70.976 136.695 71.162 135.843 71.162C134.967 71.162 134.175 70.946 133.467 70.514C132.759 70.082 132.201 69.476 131.793 68.696C131.385 67.916 131.181 67.028 131.181 66.032ZM139.533 66.05C139.533 65.306 139.383 64.658 139.083 64.106C138.783 63.554 138.375 63.134 137.859 62.846C137.355 62.546 136.797 62.396 136.185 62.396C135.573 62.396 135.015 62.54 134.511 62.828C134.007 63.116 133.605 63.536 133.305 64.088C133.005 64.64 132.855 65.288 132.855 66.032C132.855 66.788 133.005 67.448 133.305 68.012C133.605 68.564 134.007 68.99 134.511 69.29C135.015 69.578 135.573 69.722 136.185 69.722C136.797 69.722 137.355 69.578 137.859 69.29C138.375 68.99 138.783 68.564 139.083 68.012C139.383 67.448 139.533 66.794 139.533 66.05ZM144.929 59.534C144.617 59.534 144.353 59.426 144.137 59.21C143.933 58.994 143.831 58.73 143.831 58.418C143.831 58.106 143.933 57.842 144.137 57.626C144.353 57.41 144.617 57.302 144.929 57.302C145.241 57.302 145.499 57.41 145.703 57.626C145.919 57.842 146.027 58.106 146.027 58.418C146.027 58.73 145.919 58.994 145.703 59.21C145.499 59.426 145.241 59.534 144.929 59.534ZM145.739 73.142C145.739 74.018 145.517 74.66 145.073 75.068C144.629 75.476 143.981 75.68 143.129 75.68H142.175V74.294H142.859C143.315 74.294 143.633 74.204 143.813 74.024C144.005 73.844 144.101 73.538 144.101 73.106V61.136H145.739V73.142ZM147.99 66.032C147.99 65.024 148.194 64.142 148.602 63.386C149.01 62.618 149.568 62.024 150.276 61.604C150.996 61.184 151.794 60.974 152.67 60.974C153.534 60.974 154.284 61.16 154.92 61.532C155.556 61.904 156.03 62.372 156.342 62.936V61.136H157.998V71H156.342V69.164C156.018 69.74 155.532 70.22 154.884 70.604C154.248 70.976 153.504 71.162 152.652 71.162C151.776 71.162 150.984 70.946 150.276 70.514C149.568 70.082 149.01 69.476 148.602 68.696C148.194 67.916 147.99 67.028 147.99 66.032ZM156.342 66.05C156.342 65.306 156.192 64.658 155.892 64.106C155.592 63.554 155.184 63.134 154.668 62.846C154.164 62.546 153.606 62.396 152.994 62.396C152.382 62.396 151.824 62.54 151.32 62.828C150.816 63.116 150.414 63.536 150.114 64.088C149.814 64.64 149.664 65.288 149.664 66.032C149.664 66.788 149.814 67.448 150.114 68.012C150.414 68.564 150.816 68.99 151.32 69.29C151.824 69.578 152.382 69.722 152.994 69.722C153.606 69.722 154.164 69.578 154.668 69.29C155.184 68.99 155.592 68.564 155.892 68.012C156.192 67.448 156.342 66.794 156.342 66.05ZM165.752 60.956C166.496 60.956 167.168 61.118 167.768 61.442C168.368 61.754 168.836 62.228 169.172 62.864C169.52 63.5 169.694 64.274 169.694 65.186V71H168.074V65.42C168.074 64.436 167.828 63.686 167.336 63.17C166.844 62.642 166.172 62.378 165.32 62.378C164.456 62.378 163.766 62.648 163.25 63.188C162.746 63.728 162.494 64.514 162.494 65.546V71H160.856V57.68H162.494V62.54C162.818 62.036 163.262 61.646 163.826 61.37C164.402 61.094 165.044 60.956 165.752 60.956ZM183.63 64.538C184.086 64.61 184.5 64.796 184.872 65.096C185.256 65.396 185.556 65.768 185.772 66.212C186 66.656 186.114 67.13 186.114 67.634C186.114 68.27 185.952 68.846 185.628 69.362C185.304 69.866 184.83 70.268 184.206 70.568C183.594 70.856 182.868 71 182.028 71H177.348V58.454H181.848C182.7 58.454 183.426 58.598 184.026 58.886C184.626 59.162 185.076 59.54 185.376 60.02C185.676 60.5 185.826 61.04 185.826 61.64C185.826 62.384 185.622 63.002 185.214 63.494C184.818 63.974 184.29 64.322 183.63 64.538ZM178.986 63.872H181.74C182.508 63.872 183.102 63.692 183.522 63.332C183.942 62.972 184.152 62.474 184.152 61.838C184.152 61.202 183.942 60.704 183.522 60.344C183.102 59.984 182.496 59.804 181.704 59.804H178.986V63.872ZM181.884 69.65C182.7 69.65 183.336 69.458 183.792 69.074C184.248 68.69 184.476 68.156 184.476 67.472C184.476 66.776 184.236 66.23 183.756 65.834C183.276 65.426 182.634 65.222 181.83 65.222H178.986V69.65H181.884ZM197.477 65.69C197.477 66.002 197.459 66.332 197.423 66.68H189.539C189.599 67.652 189.929 68.414 190.529 68.966C191.141 69.506 191.879 69.776 192.743 69.776C193.451 69.776 194.039 69.614 194.507 69.29C194.987 68.954 195.323 68.51 195.515 67.958H197.279C197.015 68.906 196.487 69.68 195.695 70.28C194.903 70.868 193.919 71.162 192.743 71.162C191.807 71.162 190.967 70.952 190.223 70.532C189.491 70.112 188.915 69.518 188.495 68.75C188.075 67.97 187.865 67.07 187.865 66.05C187.865 65.03 188.069 64.136 188.477 63.368C188.885 62.6 189.455 62.012 190.187 61.604C190.931 61.184 191.783 60.974 192.743 60.974C193.679 60.974 194.507 61.178 195.227 61.586C195.947 61.994 196.499 62.558 196.883 63.278C197.279 63.986 197.477 64.79 197.477 65.69ZM195.785 65.348C195.785 64.724 195.647 64.19 195.371 63.746C195.095 63.29 194.717 62.948 194.237 62.72C193.769 62.48 193.247 62.36 192.671 62.36C191.843 62.36 191.135 62.624 190.547 63.152C189.971 63.68 189.641 64.412 189.557 65.348H195.785ZM201.367 62.738C201.655 62.174 202.063 61.736 202.591 61.424C203.131 61.112 203.785 60.956 204.553 60.956V62.648H204.121C202.285 62.648 201.367 63.644 201.367 65.636V71H199.729V61.136H201.367V62.738ZM210.026 71.162C209.27 71.162 208.592 71.036 207.992 70.784C207.392 70.52 206.918 70.16 206.57 69.704C206.222 69.236 206.03 68.702 205.994 68.102H207.686C207.734 68.594 207.962 68.996 208.37 69.308C208.79 69.62 209.336 69.776 210.008 69.776C210.632 69.776 211.124 69.638 211.484 69.362C211.844 69.086 212.024 68.738 212.024 68.318C212.024 67.886 211.832 67.568 211.448 67.364C211.064 67.148 210.47 66.938 209.666 66.734C208.934 66.542 208.334 66.35 207.866 66.158C207.41 65.954 207.014 65.66 206.678 65.276C206.354 64.88 206.192 64.364 206.192 63.728C206.192 63.224 206.342 62.762 206.642 62.342C206.942 61.922 207.368 61.592 207.92 61.352C208.472 61.1 209.102 60.974 209.81 60.974C210.902 60.974 211.784 61.25 212.456 61.802C213.128 62.354 213.488 63.11 213.536 64.07H211.898C211.862 63.554 211.652 63.14 211.268 62.828C210.896 62.516 210.392 62.36 209.756 62.36C209.168 62.36 208.7 62.486 208.352 62.738C208.004 62.99 207.83 63.32 207.83 63.728C207.83 64.052 207.932 64.322 208.136 64.538C208.352 64.742 208.616 64.91 208.928 65.042C209.252 65.162 209.696 65.3 210.26 65.456C210.968 65.648 211.544 65.84 211.988 66.032C212.432 66.212 212.81 66.488 213.122 66.86C213.446 67.232 213.614 67.718 213.626 68.318C213.626 68.858 213.476 69.344 213.176 69.776C212.876 70.208 212.45 70.55 211.898 70.802C211.358 71.042 210.734 71.162 210.026 71.162ZM215.417 66.032C215.417 65.024 215.621 64.142 216.029 63.386C216.437 62.618 216.995 62.024 217.703 61.604C218.423 61.184 219.221 60.974 220.097 60.974C220.961 60.974 221.711 61.16 222.347 61.532C222.983 61.904 223.457 62.372 223.769 62.936V61.136H225.425V71H223.769V69.164C223.445 69.74 222.959 70.22 222.311 70.604C221.675 70.976 220.931 71.162 220.079 71.162C219.203 71.162 218.411 70.946 217.703 70.514C216.995 70.082 216.437 69.476 216.029 68.696C215.621 67.916 215.417 67.028 215.417 66.032ZM223.769 66.05C223.769 65.306 223.619 64.658 223.319 64.106C223.019 63.554 222.611 63.134 222.095 62.846C221.591 62.546 221.033 62.396 220.421 62.396C219.809 62.396 219.251 62.54 218.747 62.828C218.243 63.116 217.841 63.536 217.541 64.088C217.241 64.64 217.091 65.288 217.091 66.032C217.091 66.788 217.241 67.448 217.541 68.012C217.841 68.564 218.243 68.99 218.747 69.29C219.251 69.578 219.809 69.722 220.421 69.722C221.033 69.722 221.591 69.578 222.095 69.29C222.611 68.99 223.019 68.564 223.319 68.012C223.619 67.448 223.769 66.794 223.769 66.05ZM240.145 60.956C240.913 60.956 241.597 61.118 242.197 61.442C242.797 61.754 243.271 62.228 243.619 62.864C243.967 63.5 244.141 64.274 244.141 65.186V71H242.521V65.42C242.521 64.436 242.275 63.686 241.783 63.17C241.303 62.642 240.649 62.378 239.821 62.378C238.969 62.378 238.291 62.654 237.787 63.206C237.283 63.746 237.031 64.532 237.031 65.564V71H235.411V65.42C235.411 64.436 235.165 63.686 234.673 63.17C234.193 62.642 233.539 62.378 232.711 62.378C231.859 62.378 231.181 62.654 230.677 63.206C230.173 63.746 229.921 64.532 229.921 65.564V71H228.283V61.136H229.921V62.558C230.245 62.042 230.677 61.646 231.217 61.37C231.769 61.094 232.375 60.956 233.035 60.956C233.863 60.956 234.595 61.142 235.231 61.514C235.867 61.886 236.341 62.432 236.653 63.152C236.929 62.456 237.385 61.916 238.021 61.532C238.657 61.148 239.365 60.956 240.145 60.956ZM246.305 66.032C246.305 65.024 246.509 64.142 246.917 63.386C247.325 62.618 247.883 62.024 248.591 61.604C249.311 61.184 250.109 60.974 250.985 60.974C251.849 60.974 252.599 61.16 253.235 61.532C253.871 61.904 254.345 62.372 254.657 62.936V61.136H256.313V71H254.657V69.164C254.333 69.74 253.847 70.22 253.199 70.604C252.563 70.976 251.819 71.162 250.967 71.162C250.091 71.162 249.299 70.946 248.591 70.514C247.883 70.082 247.325 69.476 246.917 68.696C246.509 67.916 246.305 67.028 246.305 66.032ZM254.657 66.05C254.657 65.306 254.507 64.658 254.207 64.106C253.907 63.554 253.499 63.134 252.983 62.846C252.479 62.546 251.921 62.396 251.309 62.396C250.697 62.396 250.139 62.54 249.635 62.828C249.131 63.116 248.729 63.536 248.429 64.088C248.129 64.64 247.979 65.288 247.979 66.032C247.979 66.788 248.129 67.448 248.429 68.012C248.729 68.564 249.131 68.99 249.635 69.29C250.139 69.578 250.697 69.722 251.309 69.722C251.921 69.722 252.479 69.578 252.983 69.29C253.499 68.99 253.907 68.564 254.207 68.012C254.507 67.448 254.657 66.794 254.657 66.05Z" fill="white"/>
<path d="M114.108 93.454V94.786H110.688V106H109.05V94.786H105.612V93.454H114.108ZM115.602 101.032C115.602 100.024 115.806 99.142 116.214 98.386C116.622 97.618 117.18 97.024 117.888 96.604C118.608 96.184 119.406 95.974 120.282 95.974C121.146 95.974 121.896 96.16 122.532 96.532C123.168 96.904 123.642 97.372 123.954 97.936V96.136H125.61V106H123.954V104.164C123.63 104.74 123.144 105.22 122.496 105.604C121.86 105.976 121.116 106.162 120.264 106.162C119.388 106.162 118.596 105.946 117.888 105.514C117.18 105.082 116.622 104.476 116.214 103.696C115.806 102.916 115.602 102.028 115.602 101.032ZM123.954 101.05C123.954 100.306 123.804 99.658 123.504 99.106C123.204 98.554 122.796 98.134 122.28 97.846C121.776 97.546 121.218 97.396 120.606 97.396C119.994 97.396 119.436 97.54 118.932 97.828C118.428 98.116 118.026 98.536 117.726 99.088C117.426 99.64 117.276 100.288 117.276 101.032C117.276 101.788 117.426 102.448 117.726 103.012C118.026 103.564 118.428 103.99 118.932 104.29C119.436 104.578 119.994 104.722 120.606 104.722C121.218 104.722 121.776 104.578 122.28 104.29C122.796 103.99 123.204 103.564 123.504 103.012C123.804 102.448 123.954 101.794 123.954 101.05ZM133.274 95.956C134.474 95.956 135.446 96.322 136.19 97.054C136.934 97.774 137.306 98.818 137.306 100.186V106H135.686V100.42C135.686 99.436 135.44 98.686 134.948 98.17C134.456 97.642 133.784 97.378 132.932 97.378C132.068 97.378 131.378 97.648 130.862 98.188C130.358 98.728 130.106 99.514 130.106 100.546V106H128.468V96.136H130.106V97.54C130.43 97.036 130.868 96.646 131.42 96.37C131.984 96.094 132.602 95.956 133.274 95.956ZM139.46 101.032C139.46 100.024 139.664 99.142 140.072 98.386C140.48 97.618 141.038 97.024 141.746 96.604C142.466 96.184 143.264 95.974 144.14 95.974C145.004 95.974 145.754 96.16 146.39 96.532C147.026 96.904 147.5 97.372 147.812 97.936V96.136H149.468V106H147.812V104.164C147.488 104.74 147.002 105.22 146.354 105.604C145.718 105.976 144.974 106.162 144.122 106.162C143.246 106.162 142.454 105.946 141.746 105.514C141.038 105.082 140.48 104.476 140.072 103.696C139.664 102.916 139.46 102.028 139.46 101.032ZM147.812 101.05C147.812 100.306 147.662 99.658 147.362 99.106C147.062 98.554 146.654 98.134 146.138 97.846C145.634 97.546 145.076 97.396 144.464 97.396C143.852 97.396 143.294 97.54 142.79 97.828C142.286 98.116 141.884 98.536 141.584 99.088C141.284 99.64 141.134 100.288 141.134 101.032C141.134 101.788 141.284 102.448 141.584 103.012C141.884 103.564 142.286 103.99 142.79 104.29C143.294 104.578 143.852 104.722 144.464 104.722C145.076 104.722 145.634 104.578 146.138 104.29C146.654 103.99 147.062 103.564 147.362 103.012C147.662 102.448 147.812 101.794 147.812 101.05ZM164.188 95.956C164.956 95.956 165.64 96.118 166.24 96.442C166.84 96.754 167.314 97.228 167.662 97.864C168.01 98.5 168.184 99.274 168.184 100.186V106H166.564V100.42C166.564 99.436 166.318 98.686 165.826 98.17C165.346 97.642 164.692 97.378 163.864 97.378C163.012 97.378 162.334 97.654 161.83 98.206C161.326 98.746 161.074 99.532 161.074 100.564V106H159.454V100.42C159.454 99.436 159.208 98.686 158.716 98.17C158.236 97.642 157.582 97.378 156.754 97.378C155.902 97.378 155.224 97.654 154.72 98.206C154.216 98.746 153.964 99.532 153.964 100.564V106H152.326V96.136H153.964V97.558C154.288 97.042 154.72 96.646 155.26 96.37C155.812 96.094 156.418 95.956 157.078 95.956C157.906 95.956 158.638 96.142 159.274 96.514C159.91 96.886 160.384 97.432 160.696 98.152C160.972 97.456 161.428 96.916 162.064 96.532C162.7 96.148 163.408 95.956 164.188 95.956ZM184.238 97.126C184.238 98.17 183.878 99.04 183.158 99.736C182.45 100.42 181.364 100.762 179.9 100.762H177.488V106H175.85V93.454H179.9C181.316 93.454 182.39 93.796 183.122 94.48C183.866 95.164 184.238 96.046 184.238 97.126ZM179.9 99.412C180.812 99.412 181.484 99.214 181.916 98.818C182.348 98.422 182.564 97.858 182.564 97.126C182.564 95.578 181.676 94.804 179.9 94.804H177.488V99.412H179.9ZM190.666 106.162C189.742 106.162 188.902 105.952 188.146 105.532C187.402 105.112 186.814 104.518 186.382 103.75C185.962 102.97 185.752 102.07 185.752 101.05C185.752 100.042 185.968 99.154 186.4 98.386C186.844 97.606 187.444 97.012 188.2 96.604C188.956 96.184 189.802 95.974 190.738 95.974C191.674 95.974 192.52 96.184 193.276 96.604C194.032 97.012 194.626 97.6 195.058 98.368C195.502 99.136 195.724 100.03 195.724 101.05C195.724 102.07 195.496 102.97 195.04 103.75C194.596 104.518 193.99 105.112 193.222 105.532C192.454 105.952 191.602 106.162 190.666 106.162ZM190.666 104.722C191.254 104.722 191.806 104.584 192.322 104.308C192.838 104.032 193.252 103.618 193.564 103.066C193.888 102.514 194.05 101.842 194.05 101.05C194.05 100.258 193.894 99.586 193.582 99.034C193.27 98.482 192.862 98.074 192.358 97.81C191.854 97.534 191.308 97.396 190.72 97.396C190.12 97.396 189.568 97.534 189.064 97.81C188.572 98.074 188.176 98.482 187.876 99.034C187.576 99.586 187.426 100.258 187.426 101.05C187.426 101.854 187.57 102.532 187.858 103.084C188.158 103.636 188.554 104.05 189.046 104.326C189.538 104.59 190.078 104.722 190.666 104.722ZM202.863 95.956C203.607 95.956 204.279 96.118 204.879 96.442C205.479 96.754 205.947 97.228 206.283 97.864C206.631 98.5 206.805 99.274 206.805 100.186V106H205.185V100.42C205.185 99.436 204.939 98.686 204.447 98.17C203.955 97.642 203.283 97.378 202.431 97.378C201.567 97.378 200.877 97.648 200.361 98.188C199.857 98.728 199.605 99.514 199.605 100.546V106H197.967V92.68H199.605V97.54C199.929 97.036 200.373 96.646 200.937 96.37C201.513 96.094 202.155 95.956 202.863 95.956ZM213.873 106.162C212.949 106.162 212.109 105.952 211.353 105.532C210.609 105.112 210.021 104.518 209.589 103.75C209.169 102.97 208.959 102.07 208.959 101.05C208.959 100.042 209.175 99.154 209.607 98.386C210.051 97.606 210.651 97.012 211.407 96.604C212.163 96.184 213.009 95.974 213.945 95.974C214.881 95.974 215.727 96.184 216.483 96.604C217.239 97.012 217.833 97.6 218.265 98.368C218.709 99.136 218.931 100.03 218.931 101.05C218.931 102.07 218.703 102.97 218.247 103.75C217.803 104.518 217.197 105.112 216.429 105.532C215.661 105.952 214.809 106.162 213.873 106.162ZM213.873 104.722C214.461 104.722 215.013 104.584 215.529 104.308C216.045 104.032 216.459 103.618 216.771 103.066C217.095 102.514 217.257 101.842 217.257 101.05C217.257 100.258 217.101 99.586 216.789 99.034C216.477 98.482 216.069 98.074 215.565 97.81C215.061 97.534 214.515 97.396 213.927 97.396C213.327 97.396 212.775 97.534 212.271 97.81C211.779 98.074 211.383 98.482 211.083 99.034C210.783 99.586 210.633 100.258 210.633 101.05C210.633 101.854 210.777 102.532 211.065 103.084C211.365 103.636 211.761 104.05 212.253 104.326C212.745 104.59 213.285 104.722 213.873 104.722ZM225.981 95.956C227.181 95.956 228.153 96.322 228.897 97.054C229.641 97.774 230.013 98.818 230.013 100.186V106H228.393V100.42C228.393 99.436 228.147 98.686 227.655 98.17C227.163 97.642 226.491 97.378 225.639 97.378C224.775 97.378 224.085 97.648 223.569 98.188C223.065 98.728 222.813 99.514 222.813 100.546V106H221.175V96.136H222.813V97.54C223.137 97.036 223.575 96.646 224.127 96.37C224.691 96.094 225.309 95.956 225.981 95.956Z" fill="white"/>
<path d="M110.364 141.126C109.536 141.126 108.792 140.982 108.132 140.694C107.484 140.394 106.974 139.986 106.602 139.47C106.23 138.942 106.038 138.336 106.026 137.652H107.772C107.832 138.24 108.072 138.738 108.492 139.146C108.924 139.542 109.548 139.74 110.364 139.74C111.144 139.74 111.756 139.548 112.2 139.164C112.656 138.768 112.884 138.264 112.884 137.652C112.884 137.172 112.752 136.782 112.488 136.482C112.224 136.182 111.894 135.954 111.498 135.798C111.102 135.642 110.568 135.474 109.896 135.294C109.068 135.078 108.402 134.862 107.898 134.646C107.406 134.43 106.98 134.094 106.62 133.638C106.272 133.17 106.098 132.546 106.098 131.766C106.098 131.082 106.272 130.476 106.62 129.948C106.968 129.42 107.454 129.012 108.078 128.724C108.714 128.436 109.44 128.292 110.256 128.292C111.432 128.292 112.392 128.586 113.136 129.174C113.892 129.762 114.318 130.542 114.414 131.514H112.614C112.554 131.034 112.302 130.614 111.858 130.254C111.414 129.882 110.826 129.696 110.094 129.696C109.41 129.696 108.852 129.876 108.42 130.236C107.988 130.584 107.772 131.076 107.772 131.712C107.772 132.168 107.898 132.54 108.15 132.828C108.414 133.116 108.732 133.338 109.104 133.494C109.488 133.638 110.022 133.806 110.706 133.998C111.534 134.226 112.2 134.454 112.704 134.682C113.208 134.898 113.64 135.24 114 135.708C114.36 136.164 114.54 136.788 114.54 137.58C114.54 138.192 114.378 138.768 114.054 139.308C113.73 139.848 113.25 140.286 112.614 140.622C111.978 140.958 111.228 141.126 110.364 141.126ZM121.342 141.162C120.418 141.162 119.578 140.952 118.822 140.532C118.078 140.112 117.49 139.518 117.058 138.75C116.638 137.97 116.428 137.07 116.428 136.05C116.428 135.042 116.644 134.154 117.076 133.386C117.52 132.606 118.12 132.012 118.876 131.604C119.632 131.184 120.478 130.974 121.414 130.974C122.35 130.974 123.196 131.184 123.952 131.604C124.708 132.012 125.302 132.6 125.734 133.368C126.178 134.136 126.4 135.03 126.4 136.05C126.4 137.07 126.172 137.97 125.716 138.75C125.272 139.518 124.666 140.112 123.898 140.532C123.13 140.952 122.278 141.162 121.342 141.162ZM121.342 139.722C121.93 139.722 122.482 139.584 122.998 139.308C123.514 139.032 123.928 138.618 124.24 138.066C124.564 137.514 124.726 136.842 124.726 136.05C124.726 135.258 124.57 134.586 124.258 134.034C123.946 133.482 123.538 133.074 123.034 132.81C122.53 132.534 121.984 132.396 121.396 132.396C120.796 132.396 120.244 132.534 119.74 132.81C119.248 133.074 118.852 133.482 118.552 134.034C118.252 134.586 118.102 135.258 118.102 136.05C118.102 136.854 118.246 137.532 118.534 138.084C118.834 138.636 119.23 139.05 119.722 139.326C120.214 139.59 120.754 139.722 121.342 139.722ZM132.136 141.162C131.38 141.162 130.702 141.036 130.102 140.784C129.502 140.52 129.028 140.16 128.68 139.704C128.332 139.236 128.14 138.702 128.104 138.102H129.796C129.844 138.594 130.072 138.996 130.48 139.308C130.9 139.62 131.446 139.776 132.118 139.776C132.742 139.776 133.234 139.638 133.594 139.362C133.954 139.086 134.134 138.738 134.134 138.318C134.134 137.886 133.942 137.568 133.558 137.364C133.174 137.148 132.58 136.938 131.776 136.734C131.044 136.542 130.444 136.35 129.976 136.158C129.52 135.954 129.124 135.66 128.788 135.276C128.464 134.88 128.302 134.364 128.302 133.728C128.302 133.224 128.452 132.762 128.752 132.342C129.052 131.922 129.478 131.592 130.03 131.352C130.582 131.1 131.212 130.974 131.92 130.974C133.012 130.974 133.894 131.25 134.566 131.802C135.238 132.354 135.598 133.11 135.646 134.07H134.008C133.972 133.554 133.762 133.14 133.378 132.828C133.006 132.516 132.502 132.36 131.866 132.36C131.278 132.36 130.81 132.486 130.462 132.738C130.114 132.99 129.94 133.32 129.94 133.728C129.94 134.052 130.042 134.322 130.246 134.538C130.462 134.742 130.726 134.91 131.038 135.042C131.362 135.162 131.806 135.3 132.37 135.456C133.078 135.648 133.654 135.84 134.098 136.032C134.542 136.212 134.92 136.488 135.232 136.86C135.556 137.232 135.724 137.718 135.736 138.318C135.736 138.858 135.586 139.344 135.286 139.776C134.986 140.208 134.56 140.55 134.008 140.802C133.468 141.042 132.844 141.162 132.136 141.162ZM138.984 129.534C138.672 129.534 138.408 129.426 138.192 129.21C137.976 128.994 137.868 128.73 137.868 128.418C137.868 128.106 137.976 127.842 138.192 127.626C138.408 127.41 138.672 127.302 138.984 127.302C139.284 127.302 139.536 127.41 139.74 127.626C139.956 127.842 140.064 128.106 140.064 128.418C140.064 128.73 139.956 128.994 139.74 129.21C139.536 129.426 139.284 129.534 138.984 129.534ZM139.776 131.136V141H138.138V131.136H139.776ZM142.046 136.032C142.046 135.024 142.25 134.142 142.658 133.386C143.066 132.618 143.624 132.024 144.332 131.604C145.052 131.184 145.85 130.974 146.726 130.974C147.59 130.974 148.34 131.16 148.976 131.532C149.612 131.904 150.086 132.372 150.398 132.936V131.136H152.054V141H150.398V139.164C150.074 139.74 149.588 140.22 148.94 140.604C148.304 140.976 147.56 141.162 146.708 141.162C145.832 141.162 145.04 140.946 144.332 140.514C143.624 140.082 143.066 139.476 142.658 138.696C142.25 137.916 142.046 137.028 142.046 136.032ZM150.398 136.05C150.398 135.306 150.248 134.658 149.948 134.106C149.648 133.554 149.24 133.134 148.724 132.846C148.22 132.546 147.662 132.396 147.05 132.396C146.438 132.396 145.88 132.54 145.376 132.828C144.872 133.116 144.47 133.536 144.17 134.088C143.87 134.64 143.72 135.288 143.72 136.032C143.72 136.788 143.87 137.448 144.17 138.012C144.47 138.564 144.872 138.99 145.376 139.29C145.88 139.578 146.438 139.722 147.05 139.722C147.662 139.722 148.22 139.578 148.724 139.29C149.24 138.99 149.648 138.564 149.948 138.012C150.248 137.448 150.398 136.794 150.398 136.05ZM156.55 127.68V141H154.912V127.68H156.55ZM160.278 129.534C159.966 129.534 159.702 129.426 159.486 129.21C159.27 128.994 159.162 128.73 159.162 128.418C159.162 128.106 159.27 127.842 159.486 127.626C159.702 127.41 159.966 127.302 160.278 127.302C160.578 127.302 160.83 127.41 161.034 127.626C161.25 127.842 161.358 128.106 161.358 128.418C161.358 128.73 161.25 128.994 161.034 129.21C160.83 129.426 160.578 129.534 160.278 129.534ZM161.07 131.136V141H159.432V131.136H161.07ZM167.444 141.162C166.688 141.162 166.01 141.036 165.41 140.784C164.81 140.52 164.336 140.16 163.988 139.704C163.64 139.236 163.448 138.702 163.412 138.102H165.104C165.152 138.594 165.38 138.996 165.788 139.308C166.208 139.62 166.754 139.776 167.426 139.776C168.05 139.776 168.542 139.638 168.902 139.362C169.262 139.086 169.442 138.738 169.442 138.318C169.442 137.886 169.25 137.568 168.866 137.364C168.482 137.148 167.888 136.938 167.084 136.734C166.352 136.542 165.752 136.35 165.284 136.158C164.828 135.954 164.432 135.66 164.096 135.276C163.772 134.88 163.61 134.364 163.61 133.728C163.61 133.224 163.76 132.762 164.06 132.342C164.36 131.922 164.786 131.592 165.338 131.352C165.89 131.1 166.52 130.974 167.228 130.974C168.32 130.974 169.202 131.25 169.874 131.802C170.546 132.354 170.906 133.11 170.954 134.07H169.316C169.28 133.554 169.07 133.14 168.686 132.828C168.314 132.516 167.81 132.36 167.174 132.36C166.586 132.36 166.118 132.486 165.77 132.738C165.422 132.99 165.248 133.32 165.248 133.728C165.248 134.052 165.35 134.322 165.554 134.538C165.77 134.742 166.034 134.91 166.346 135.042C166.67 135.162 167.114 135.3 167.678 135.456C168.386 135.648 168.962 135.84 169.406 136.032C169.85 136.212 170.228 136.488 170.54 136.86C170.864 137.232 171.032 137.718 171.044 138.318C171.044 138.858 170.894 139.344 170.594 139.776C170.294 140.208 169.868 140.55 169.316 140.802C168.776 141.042 168.152 141.162 167.444 141.162ZM172.834 136.032C172.834 135.024 173.038 134.142 173.446 133.386C173.854 132.618 174.412 132.024 175.12 131.604C175.84 131.184 176.638 130.974 177.514 130.974C178.378 130.974 179.128 131.16 179.764 131.532C180.4 131.904 180.874 132.372 181.186 132.936V131.136H182.842V141H181.186V139.164C180.862 139.74 180.376 140.22 179.728 140.604C179.092 140.976 178.348 141.162 177.496 141.162C176.62 141.162 175.828 140.946 175.12 140.514C174.412 140.082 173.854 139.476 173.446 138.696C173.038 137.916 172.834 137.028 172.834 136.032ZM181.186 136.05C181.186 135.306 181.036 134.658 180.736 134.106C180.436 133.554 180.028 133.134 179.512 132.846C179.008 132.546 178.45 132.396 177.838 132.396C177.226 132.396 176.668 132.54 176.164 132.828C175.66 133.116 175.258 133.536 174.958 134.088C174.658 134.64 174.508 135.288 174.508 136.032C174.508 136.788 174.658 137.448 174.958 138.012C175.258 138.564 175.66 138.99 176.164 139.29C176.668 139.578 177.226 139.722 177.838 139.722C178.45 139.722 179.008 139.578 179.512 139.29C180.028 138.99 180.436 138.564 180.736 138.012C181.036 137.448 181.186 136.794 181.186 136.05ZM189.192 141.162C188.436 141.162 187.758 141.036 187.158 140.784C186.558 140.52 186.084 140.16 185.736 139.704C185.388 139.236 185.196 138.702 185.16 138.102H186.852C186.9 138.594 187.128 138.996 187.536 139.308C187.956 139.62 188.502 139.776 189.174 139.776C189.798 139.776 190.29 139.638 190.65 139.362C191.01 139.086 191.19 138.738 191.19 138.318C191.19 137.886 190.998 137.568 190.614 137.364C190.23 137.148 189.636 136.938 188.832 136.734C188.1 136.542 187.5 136.35 187.032 136.158C186.576 135.954 186.18 135.66 185.844 135.276C185.52 134.88 185.358 134.364 185.358 133.728C185.358 133.224 185.508 132.762 185.808 132.342C186.108 131.922 186.534 131.592 187.086 131.352C187.638 131.1 188.268 130.974 188.976 130.974C190.068 130.974 190.95 131.25 191.622 131.802C192.294 132.354 192.654 133.11 192.702 134.07H191.064C191.028 133.554 190.818 133.14 190.434 132.828C190.062 132.516 189.558 132.36 188.922 132.36C188.334 132.36 187.866 132.486 187.518 132.738C187.17 132.99 186.996 133.32 186.996 133.728C186.996 134.052 187.098 134.322 187.302 134.538C187.518 134.742 187.782 134.91 188.094 135.042C188.418 135.162 188.862 135.3 189.426 135.456C190.134 135.648 190.71 135.84 191.154 136.032C191.598 136.212 191.976 136.488 192.288 136.86C192.612 137.232 192.78 137.718 192.792 138.318C192.792 138.858 192.642 139.344 192.342 139.776C192.042 140.208 191.616 140.55 191.064 140.802C190.524 141.042 189.9 141.162 189.192 141.162ZM196.04 129.534C195.728 129.534 195.464 129.426 195.248 129.21C195.032 128.994 194.924 128.73 194.924 128.418C194.924 128.106 195.032 127.842 195.248 127.626C195.464 127.41 195.728 127.302 196.04 127.302C196.34 127.302 196.592 127.41 196.796 127.626C197.012 127.842 197.12 128.106 197.12 128.418C197.12 128.73 197.012 128.994 196.796 129.21C196.592 129.426 196.34 129.534 196.04 129.534ZM196.832 131.136V141H195.194V131.136H196.832ZM214.269 128.454V141H212.631V135.312H206.241V141H204.603V128.454H206.241V133.962H212.631V128.454H214.269ZM225.904 131.136V141H224.266V139.542C223.954 140.046 223.516 140.442 222.952 140.73C222.4 141.006 221.788 141.144 221.116 141.144C220.348 141.144 219.658 140.988 219.046 140.676C218.434 140.352 217.948 139.872 217.588 139.236C217.24 138.6 217.066 137.826 217.066 136.914V131.136H218.686V136.698C218.686 137.67 218.932 138.42 219.424 138.948C219.916 139.464 220.588 139.722 221.44 139.722C222.316 139.722 223.006 139.452 223.51 138.912C224.014 138.372 224.266 137.586 224.266 136.554V131.136H225.904ZM230.757 132.486V138.3C230.757 138.78 230.859 139.122 231.063 139.326C231.267 139.518 231.621 139.614 232.125 139.614H233.331V141H231.855C230.943 141 230.259 140.79 229.803 140.37C229.347 139.95 229.119 139.26 229.119 138.3V132.486H227.841V131.136H229.119V128.652H230.757V131.136H233.331V132.486H230.757ZM234.794 136.032C234.794 135.024 234.998 134.142 235.406 133.386C235.814 132.618 236.372 132.024 237.08 131.604C237.8 131.184 238.598 130.974 239.474 130.974C240.338 130.974 241.088 131.16 241.724 131.532C242.36 131.904 242.834 132.372 243.146 132.936V131.136H244.802V141H243.146V139.164C242.822 139.74 242.336 140.22 241.688 140.604C241.052 140.976 240.308 141.162 239.456 141.162C238.58 141.162 237.788 140.946 237.08 140.514C236.372 140.082 235.814 139.476 235.406 138.696C234.998 137.916 234.794 137.028 234.794 136.032ZM243.146 136.05C243.146 135.306 242.996 134.658 242.696 134.106C242.396 133.554 241.988 133.134 241.472 132.846C240.968 132.546 240.41 132.396 239.798 132.396C239.186 132.396 238.628 132.54 238.124 132.828C237.62 133.116 237.218 133.536 236.918 134.088C236.618 134.64 236.468 135.288 236.468 136.032C236.468 136.788 236.618 137.448 236.918 138.012C237.218 138.564 237.62 138.99 238.124 139.29C238.628 139.578 239.186 139.722 239.798 139.722C240.41 139.722 240.968 139.578 241.472 139.29C241.988 138.99 242.396 138.564 242.696 138.012C242.996 137.448 243.146 136.794 243.146 136.05ZM252.466 130.956C253.666 130.956 254.638 131.322 255.382 132.054C256.126 132.774 256.498 133.818 256.498 135.186V141H254.878V135.42C254.878 134.436 254.632 133.686 254.14 133.17C253.648 132.642 252.976 132.378 252.124 132.378C251.26 132.378 250.57 132.648 250.054 133.188C249.55 133.728 249.298 134.514 249.298 135.546V141H247.66V131.136H249.298V132.54C249.622 132.036 250.06 131.646 250.612 131.37C251.176 131.094 251.794 130.956 252.466 130.956Z" fill="white"/>
</svg>
